<?xml version="1.0" encoding="UTF-8"?>
<svg width="101px" height="57px" viewBox="0 0 101 57" version="1.1" xmlns="http://www.w3.org/2000/svg" xmlns:xlink="http://www.w3.org/1999/xlink">
    <!-- Generator: Sketch 46.1 (44463) - http://www.bohemiancoding.com/sketch -->
    <title>Slice 1</title>
    <desc>Created with Sketch.</desc>
    <defs></defs>
    <g id="Page-1" stroke="none" stroke-width="1" fill="none" fill-rule="evenodd">
        <g id="shutterstock_272557313-(1)">
            <rect id="Rectangle-16" fill="#E6ECF0" x="83.9285714" y="24.9375" width="14.2857143" height="24.9375"></rect>
            <path d="M51.5625,52.06768 L42.188244,52.06768 C40.4690476,52.06768 39.844494,51.357789 39.844494,50.492145 L53.90625,50.492145 C53.90625,51.357789 53.2825893,52.06768 51.5625,52.06768 Z M57.8125,47.3410751 L12.5,47.3410751 L12.5,3.22609545 L81.2516369,3.22609545 L81.2516369,9.52823539 L84.3766369,9.52823539 L84.3766369,3.22609545 C84.3766369,1.49255681 82.9700893,0.0750254755 81.2516369,0.0750254755 L12.5,0.0750254755 C10.7808036,0.0750254755 9.375,1.49255681 9.375,3.22609545 L9.375,50.492145 L0.78125,50.492145 C0.352083333,50.492145 0,50.8462653 0,51.2799125 L0,52.06768 C0,53.8004684 1.40580357,55.21875 3.125,55.21875 L58.4662202,55.21875 C58.0566964,54.6264989 57.8125,53.9100056 57.8125,53.1334919 L57.8125,47.3410751 L57.8125,47.3410751 Z" id="Fill-1" fill="#0A0B09"></path>
            <path d="M75.784375,51.2799125 C76.4349702,51.2799125 76.9547619,51.8071916 76.9547619,52.4584127 C76.9547619,53.1094838 76.4349702,53.643215 75.784375,53.643215 C75.1354167,53.643215 74.609375,53.1094838 74.609375,52.4584127 C74.609375,51.8071916 75.1354167,51.2799125 75.784375,51.2799125 Z M90.119494,11.1037704 L61.4431548,11.1037704 C60.3059524,11.1037704 59.375,12.0424891 59.375,13.1884282 L59.375,53.1334919 C59.375,54.2800312 60.3043155,55.21875 61.4431548,55.21875 L81.6800595,55.21875 C81.4139881,54.7565931 81.25,54.226163 81.25,53.6559693 L81.25,49.7043775 L61.71875,49.7043775 L61.71875,15.0426078 L89.84375,15.0426078 L89.84375,20.5577306 L92.1875,20.5577306 L92.1875,13.1884282 C92.1875,12.0424891 91.2598214,11.1037704 90.119494,11.1037704 L90.119494,11.1037704 Z" id="Fill-2" fill="#0B0B09"></path>
            <path d="M85.0364583,49.7043775 L97.5364583,49.7043775 L97.5364583,26.072103 L85.0364583,26.072103 L85.0364583,49.7043775 Z M91.4078869,53.643215 C90.7620536,53.643215 90.2360119,53.1094838 90.2360119,52.4615638 C90.2360119,51.8071916 90.7620536,51.2799125 91.4078869,51.2799125 C92.0599702,51.2799125 92.5797619,51.8071916 92.5797619,52.4615638 C92.5797619,53.1094838 92.0599702,53.643215 91.4078869,53.643215 Z M98.4517857,22.1332655 L84.365625,22.1332655 C83.5150298,22.1332655 82.815625,22.8377548 82.815625,23.6961962 L82.815625,53.6559693 C82.815625,54.5151611 83.5150298,55.21875 84.365625,55.21875 L98.4517857,55.21875 C99.303869,55.21875 100,54.5136606 100,53.6559693 L100,23.6961962 C100,22.8377548 99.2991071,22.1332655 98.4517857,22.1332655 L98.4517857,22.1332655 Z" id="Fill-3" fill="#000000"></path>
        </g>
    </g>
</svg>