<?xml version="1.0" encoding="UTF-8" standalone="no"?>
<svg width="32px" height="32px" viewBox="0 0 32 32" version="1.1" xmlns="http://www.w3.org/2000/svg" xmlns:xlink="http://www.w3.org/1999/xlink" xmlns:sketch="http://www.bohemiancoding.com/sketch/ns">
    <!-- Generator: Sketch 3.5.2 (25235) - http://www.bohemiancoding.com/sketch -->
    <title>Slice 1</title>
    <desc>Created with Sketch.</desc>
    <defs></defs>
    <g id="Page-1" stroke="none" stroke-width="1" fill="none" fill-rule="evenodd" sketch:type="MSPage">
        <rect id="Rectangle-1" sketch:type="MSShapeGroup" x="0" y="0" width="32" height="32"></rect>
        <g id="marker" sketch:type="MSLayerGroup" transform="translate(6.000000, 0.000000)" fill="#166395">
            <g id="Group" sketch:type="MSShapeGroup">
                <path d="M9.84709426,12.9472691 C11.7514432,12.9472691 13.295223,11.4034893 13.295223,9.4991404 C13.295223,7.59479149 11.7514432,6.05101168 9.84709426,6.05101168 C7.94274535,6.05101168 6.39896554,7.59479149 6.39896554,9.4991404 C6.39896554,11.4034893 7.94274535,12.9472691 9.84709426,12.9472691 Z M9.87323782,31.8537653 C9.14411461,28.2745426 7.85849093,25.2958695 6.30153846,22.5353729 C5.14657615,20.4877114 3.80868415,18.5976637 2.57072074,16.6118816 C2.1574644,15.9490201 1.8008211,15.24873 1.40372111,14.5608346 C0.609709206,13.1852508 -0.0340618617,11.5902491 0.00684622732,9.5215223 C0.0468139005,7.50019249 0.631432812,5.8787275 1.47445919,4.55292925 C2.86098949,2.372293 5.18345926,0.584562486 8.29962119,0.114730732 C10.8475839,-0.26941033 13.2364282,0.37958945 14.9303052,1.37014826 C16.3145221,2.1796206 17.3866714,3.26094835 18.2014477,4.53521181 C19.0519597,5.86526074 19.6376507,7.43658276 19.6867404,9.48612505 C19.7119455,10.5361934 19.5400374,11.5085834 19.2977844,12.3152721 C19.0527121,13.1317223 18.6584898,13.8142009 18.3077146,14.5431172 C17.6229038,15.9661356 16.7644922,17.269947 15.9028833,18.5744918 C13.3366765,22.4604781 10.9280835,26.4233905 9.87331306,31.8537277 L9.87323782,31.8537653 Z" id="svg_2"></path>
            </g>
        </g>
    </g>
</svg>