<?xml version="1.0" encoding="UTF-8"?>
<svg width="44px" height="20px" viewBox="0 0 44 20" version="1.1" xmlns="http://www.w3.org/2000/svg" xmlns:xlink="http://www.w3.org/1999/xlink">
    <!-- Generator: Sketch 46.1 (44463) - http://www.bohemiancoding.com/sketch -->
    <title>Slice 1</title>
    <desc>Created with Sketch.</desc>
    <defs></defs>
    <g id="Page-1" stroke="none" stroke-width="1" fill="none" fill-rule="evenodd">
        <g id="rocket" transform="translate(22.000000, 10.000000) rotate(-90.000000) translate(-22.000000, -10.000000) translate(13.000000, -11.000000)" fill="#FFFFFF">
            <g id="if_solid-travel-tourism-rocket_1308354" fill-rule="nonzero">
                <path d="M15.7682927,7.34618182 C14.7658537,2.97054545 11.6707317,0.0458181818 8.99268293,0.0458181818 C6.31463415,0.0458181818 3.67317073,2.81018182 2.41463415,7.34618182 C1.1195122,12.012 2.92682927,23.0389091 5.49512195,29.2472727 L12.4902439,29.2472727 C15.2560976,22.6341818 16.8146341,11.9050909 15.7682927,7.34618182 Z M9,14.6465455 C7.06829268,14.6465455 5.50243902,13.0123636 5.50243902,10.9963636 C5.50243902,8.98036364 7.06829268,7.34618182 9,7.34618182 C10.9317073,7.34618182 12.497561,8.98036364 12.497561,10.9963636 C12.497561,13.0123636 10.9243902,14.6465455 9,14.6465455 Z" id="Shape"></path>
                <rect id="Rectangle-path" x="5.50243902" y="29.904" width="6.99512195" height="2.94"></rect>
                <path d="M3.27073171,24.3829091 C3.69512195,26.1545455 4.44146341,28.0789091 4.76341463,28.8730909 C4.85121951,29.0945455 4.78536585,29.3465455 4.59512195,29.484 L0.826829268,32.2789091 C0.504878049,32.5156364 0.0585365854,32.2789091 0.0585365854,31.8665455 L0.0585365854,27.2083636 C0.0585365854,27.0861818 0.102439024,26.964 0.175609756,26.8723636 L2.42926829,24.1767273 C2.69268293,23.8636364 3.17560976,23.9858182 3.27073171,24.3829091 Z" id="Shape"></path>
                <path d="M14.7365854,24.3829091 C14.3121951,26.1545455 13.5658537,28.0789091 13.2439024,28.8730909 C13.1560976,29.0945455 13.2219512,29.3465455 13.4121951,29.484 L17.1804878,32.2789091 C17.502439,32.5156364 17.9487805,32.2789091 17.9487805,31.8665455 L17.9487805,27.2083636 C17.9487805,27.0861818 17.904878,26.964 17.8317073,26.8723636 L15.5780488,24.1767273 C15.3146341,23.8636364 14.8317073,23.9858182 14.7365854,24.3829091 Z" id="Shape"></path>
            </g>
            <path d="M7.05777932,34.5930762 L7.03198689,34.6154466 C6.48429312,35.0815008 6.45663204,35.8273673 6.55911504,36.5102415 C6.66159365,37.1931156 6.91208406,37.9207557 7.19749116,38.6108458 C7.76830535,39.9911404 8.4914387,41.2147909 8.4914387,41.2147909 L8.95356306,42 L9.42643491,41.2215017 C9.42643491,41.2215017 10.1686102,39.9988293 10.7612209,38.6197946 C11.0575274,37.9302773 11.321817,37.2022924 11.4339888,36.5191892 C11.4900692,36.1776375 11.5103976,35.8444472 11.4554827,35.5169837 C11.4010079,35.1921546 11.2543101,34.8594258 10.9847601,34.6243943 C10.4862796,34.1754063 9.80694395,33.9957045 9.10402239,33.9845943 C8.39868632,33.9709037 7.65554256,34.1412247 7.05777932,34.5930762 Z" id="path5617-44-0-3-5-6-path" stroke="#FFFFFF" stroke-width="1.13999993"></path>
        </g>
    </g>
</svg>