<?xml version="1.0" encoding="UTF-8"?>
<svg width="52px" height="52px" viewBox="0 0 52 52" version="1.1" xmlns="http://www.w3.org/2000/svg" xmlns:xlink="http://www.w3.org/1999/xlink">
    <!-- Generator: Sketch 46.1 (44463) - http://www.bohemiancoding.com/sketch -->
    <title>Slice 1</title>
    <desc>Created with Sketch.</desc>
    <defs></defs>
    <g id="Page-1" stroke="none" stroke-width="1" fill="none" fill-rule="evenodd">
        <g id="close" fill="#FFFFFF">
            <path d="M25.5,0 C11.4160313,0 0,11.4160313 0,25.5 C0,39.582375 11.4160313,51 25.5,51 C39.582375,51 51,39.5839688 51,25.5 C51,11.4160313 39.582375,0 25.5,0 Z M25.5,47.8125 C13.177125,47.8125 3.1875,37.822875 3.1875,25.5 C3.1875,13.177125 13.177125,3.1875 25.5,3.1875 C37.822875,3.1875 47.8125,13.177125 47.8125,25.5 C47.8125,37.822875 37.822875,47.8125 25.5,47.8125 Z" id="Shape"></path>
            <path d="M36.2243438,33.9006563 L27.8284687,25.5031875 L36.1765313,17.2236563 C36.8060625,16.6005 36.8060625,15.5916563 36.1765313,14.9700938 C35.5485938,14.3485313 34.5285937,14.3485313 33.9006562,14.9700938 L25.56375,23.2384688 L17.1025312,14.7756563 C16.4745937,14.1445313 15.4545937,14.1445313 14.8266562,14.7756563 C14.1987187,15.4051875 14.1987187,16.428375 14.8266562,17.0579063 L23.275125,25.5079688 L14.7788437,33.934125 C14.1509062,34.5572813 14.1509062,35.566125 14.7788437,36.1876875 C15.4067812,36.8108438 16.4267812,36.8108438 17.0563125,36.1876875 L25.5414375,27.7726875 L33.9500625,36.1813125 C34.578,36.8124375 35.598,36.8124375 36.2259375,36.1813125 C36.8522813,35.553375 36.8522813,34.5317813 36.2243438,33.9006563 Z" id="Shape"></path>
        </g>
    </g>
</svg>