<?xml version="1.0" standalone="no"?>
<!DOCTYPE svg PUBLIC "-//W3C//DTD SVG 1.1//EN" "http://www.w3.org/Graphics/SVG/1.1/DTD/svg11.dtd" >
<svg>
<metadata>
Created by FontForge 20090622 at Thu Dec  1 10:16:34 2016
 By deploy user
&#60; info@fontfont.de &#62; Copyright Evert Bloemsma, 1998. Published by FontShop International.  FontFont Release 22
</metadata>
<defs>
<font id="Cocon-Regular" horiz-adv-x="590" >
  <font-face 
    font-family="Cocon"
    font-weight="500"
    font-stretch="normal"
    units-per-em="1000"
    panose-1="0 0 0 0 0 0 0 0 0 0"
    ascent="800"
    descent="-200"
    x-height="540"
    cap-height="685"
    bbox="-46 -285 1375 931"
    underline-thickness="20"
    underline-position="-156"
    unicode-range="U+0020-U+FB02"
  />
<missing-glyph horiz-adv-x="500" 
 />
    <glyph glyph-name=".notdef" horiz-adv-x="500" 
 />
    <glyph glyph-name=".null" horiz-adv-x="0" 
 />
    <glyph glyph-name="nonmarkingreturn" horiz-adv-x="333" 
 />
    <glyph glyph-name="space" unicode=" " horiz-adv-x="222" 
 />
    <glyph glyph-name="exclam" unicode="!" horiz-adv-x="318" 
d="M223 601l-10 -366h-41q-36 0 -56.5 22t-21.5 62l-10 366h61q36 0 57.5 -22.5t20.5 -61.5zM247 86q0 -35 -25.5 -60.5t-60.5 -25.5t-60.5 25.5t-25.5 60.5t25.5 60.5t60.5 25.5t60.5 -25.5t25.5 -60.5z" />
    <glyph glyph-name="quotedbl" unicode="&#x22;" horiz-adv-x="394" 
d="M366 602l-15 -158h-32q-70 0 -78 84l-14 158h61q37 0 59.5 -22.5t18.5 -61.5zM177 602l-15 -158h-32q-70 0 -78 84l-14 158h61q37 0 59.5 -22.5t18.5 -61.5z" />
    <glyph glyph-name="numbersign" unicode="#" 
d="M574 469q0 -31 -19 -48t-53 -17h-31l-24 -122h83v-31q0 -31 -19 -48.5t-53 -17.5h-30l-36 -185h-41q-55 0 -55 57q0 12 3 25l20 103h-105l-36 -185h-41q-55 0 -55 57q0 13 3 26l20 102h-90v32q0 31 19 48t53 17h37l23 122h-88v31q0 31 19 48.5t53 17.5h35l36 184h31
q64 0 64 -61q0 -5 -2 -19l-20 -104h105l36 184h31q30 0 47 -15.5t17 -43.5q0 -15 -2 -24l-19 -101h84v-32zM362 404h-106l-23 -122h105z" />
    <glyph glyph-name="dollar" unicode="$" 
d="M533 204q0 -88 -59.5 -143t-127.5 -60v-137h-32q-60 0 -60 57v79q-182 8 -182 138v46h2q73 -71 190 -71q73 0 103 19.5t30 62.5q0 38 -30.5 56t-129.5 35q-180 30 -180 170q0 84 58 138.5t139 65.5v134h39q53 0 53 -56v-75q81 -5 125 -37t44 -86v-53h-5q-59 62 -177 62
q-142 0 -142 -79q0 -35 28 -51t130 -34q89 -16 136.5 -62.5t47.5 -118.5z" />
    <glyph glyph-name="percent" unicode="%" horiz-adv-x="993" 
d="M400 477q0 -101 -48.5 -166t-134.5 -65q-79 0 -126.5 62.5t-47.5 152.5q0 101 48.5 166t134.5 65q79 0 126.5 -62.5t47.5 -152.5zM672 602l-285 -602h-25q-25 0 -40 13.5t-15 38.5q0 23 16 55l275 576h34q20 0 33.5 -11t13.5 -32q0 -23 -7 -38zM953 221
q0 -101 -48.5 -166t-134.5 -65q-79 0 -126.5 63t-47.5 153q0 101 48 165.5t134 64.5q80 0 127.5 -63t47.5 -152zM289 461q0 135 -71 135q-31 0 -47.5 -32.5t-16.5 -86.5q0 -135 71 -135q31 0 47.5 32.5t16.5 86.5zM846 209q0 134 -71 134q-31 0 -48 -32.5t-17 -86.5
q0 -134 72 -134q31 0 47.5 32.5t16.5 86.5z" />
    <glyph glyph-name="ampersand" unicode="&#x26;" horiz-adv-x="672" 
d="M654 63q0 -76 -66 -76q-60 0 -101 40l-35 34q-66 -73 -186 -73q-110 0 -169.5 55t-59.5 144q0 58 38.5 109t94.5 83q-64 74 -64 132q0 72 52.5 124t145.5 52q77 0 124.5 -42.5t47.5 -115.5q0 -97 -145 -179q67 -86 123 -140q27 31 48 80t22 95h27q25 0 40.5 -17t15.5 -53
q0 -68 -81 -178l20 -19q54 -52 108 -55zM362 526q0 64 -64 64q-69 0 -69 -72q0 -13 5.5 -27.5t9 -21t17 -25.5t14.5 -20q46 26 66.5 49.5t20.5 52.5zM382 133q-32 31 -79.5 84t-69.5 84q-68 -40 -68 -100q0 -57 30 -82t88 -25q62 0 99 39z" />
    <glyph glyph-name="quotesingle" unicode="'" horiz-adv-x="224" 
d="M182 601l-15 -158h-32q-70 0 -78 84l-14 158h61q37 0 59.5 -22.5t18.5 -61.5z" />
    <glyph glyph-name="parenleft" unicode="(" horiz-adv-x="354" 
d="M349 -170h-69q-39 0 -81 33q-55 44 -102.5 159.5t-47.5 244.5q0 132 41.5 243.5t103.5 171.5q17 16 43.5 27t45.5 11h67v-5q-164 -173 -164 -428q0 -153 46 -270t117 -182v-5z" />
    <glyph glyph-name="parenright" unicode=")" horiz-adv-x="354" 
d="M5 719h69q39 0 81 -33q55 -44 102.5 -159.5t47.5 -244.5q0 -132 -41.5 -243.5t-103.5 -171.5q-17 -16 -43.5 -27t-45.5 -11h-67v5q164 173 164 428q0 153 -46 270t-117 182v5z" />
    <glyph glyph-name="asterisk" unicode="*" horiz-adv-x="515" 
d="M398 479q-43 0 -76 -5q11 -14 24.5 -34.5t21.5 -31t26.5 -22.5t45.5 -19q-17 -37 -33 -54.5t-41 -17.5q-42 0 -64 33q-13 19 -27.5 58.5t-19.5 49.5q-55 -73 -55 -149q-102 5 -102 73q0 22 10.5 41.5t21.5 30t33 27.5t31 25q-50 18 -97 18q-22 0 -68 -15q7 121 84 121
q19 0 36 -5.5t26.5 -11.5t26.5 -18.5t27 -18.5q1 8 1 21q0 90 -42 142q51 15 62 15q37 0 61 -18t24 -55q0 -18 -4.5 -37t-13 -42t-11.5 -35q36 7 72.5 34t62.5 65q43 -62 43 -96q0 -35 -25 -52t-61 -17z" />
    <glyph glyph-name="plus" unicode="+" 
d="M558 286q0 -26 -21.5 -45.5t-58.5 -19.5h-127v-209h-47q-26 0 -46 21.5t-20 58.5v129h-211v55q0 22 18.5 40t46.5 18h146v189h56q22 0 39.5 -18.5t17.5 -46.5v-124h207v-48z" />
    <glyph glyph-name="comma" unicode="," horiz-adv-x="281" 
d="M219 34q0 -67 -41.5 -119.5t-98.5 -52.5h-27v6q19 18 32.5 49t13.5 54q0 29 -16 45q-27 27 -27 58t22.5 52.5t55.5 21.5q40 0 63 -29.5t23 -84.5z" />
    <glyph glyph-name="hyphen" unicode="-" horiz-adv-x="372" 
d="M333 354v-53q0 -26 -17 -40.5t-48 -14.5h-230v51q0 25 16.5 41t45.5 16h233z" />
    <glyph glyph-name="period" unicode="." horiz-adv-x="280" 
d="M227 86q0 -35 -25.5 -60.5t-60.5 -25.5t-60.5 25.5t-25.5 60.5t25.5 60.5t60.5 25.5t60.5 -25.5t25.5 -60.5z" />
    <glyph glyph-name="slash" unicode="/" horiz-adv-x="456" 
d="M412 634l-299 -634h-25q-21 0 -36 14.5t-15 40.5t13 52l288 613h35q20 0 33 -11.5t13 -33.5q0 -26 -7 -41z" />
    <glyph glyph-name="zero" unicode="0" 
d="M553 357q0 -184 -70.5 -276.5t-188.5 -92.5q-117 0 -187.5 89t-70.5 253q0 182 71 274.5t198 92.5q117 0 182.5 -91.5t65.5 -248.5zM171 358q0 -136 33 -193t101 -57q52 0 82.5 54.5t30.5 163.5q0 137 -30 194t-94 57q-55 0 -89 -53.5t-34 -165.5z" />
    <glyph glyph-name="one" unicode="1" horiz-adv-x="411" 
d="M321 0h-54q-37 0 -60 23t-23 66v454l-66 -24q-50 -17 -81 -5t-36 45l-6 35l124 55q51 22 76 29t53 7q32 0 52.5 -22.5t20.5 -50.5v-612z" />
    <glyph glyph-name="two" unicode="2" 
d="M532 67q0 -32 -25 -49.5t-67 -17.5h-317q-29 0 -49 19.5t-20 48.5q0 37 27.5 79t101.5 104l160 133q47 38 47 92q0 47 -31.5 74t-87.5 27q-74 0 -121 -21t-81 -68h-5v49q0 68 56.5 114t175.5 46q98 0 163.5 -59.5t65.5 -143.5q0 -73 -30 -118.5t-113 -110.5l-106 -83
q-48 -38 -65 -65h321v-50z" />
    <glyph glyph-name="three" unicode="3" 
d="M523 203q0 -99 -69 -157t-200 -58q-86 0 -141.5 35.5t-55.5 102.5v54h5q69 -74 199 -74q64 0 95.5 25.5t31.5 67.5q0 48 -31.5 69t-97.5 23q-83 1 -83 52v45q20 2 74 4q134 5 134 90q0 98 -134 98q-58 0 -107 -19t-76 -54h-5v58q0 48 57.5 90t154.5 42q111 0 178 -52.5
t67 -138.5q0 -133 -123 -159q47 -10 87 -52.5t40 -91.5z" />
    <glyph glyph-name="four" unicode="4" 
d="M565 221q0 -27 -14.5 -43t-42.5 -16h-51v-162h-53q-36 0 -58 23t-22 65v74h-232q-32 0 -53.5 19t-21.5 43q0 41 18 75q45 82 135.5 208t154.5 178h50q37 0 59.5 -24.5t22.5 -71.5v-314h108v-54zM324 275v271q-117 -155 -181 -271h181z" />
    <glyph glyph-name="five" unicode="5" 
d="M534 222q0 -109 -71.5 -171.5t-192.5 -62.5q-205 0 -205 129v51h5q36 -31 78 -45.5t108 -14.5q73 0 105.5 26.5t32.5 79.5q0 52 -39 75t-123 23q-64 0 -160 -22v273q0 62 25 92t84 30h330v-36q0 -38 -24 -60.5t-69 -22.5h-212v-153q46 6 90 6q102 0 170 -53.5t68 -143.5z
" />
    <glyph glyph-name="six" unicode="6" 
d="M547 232q0 -44 -14 -85.5t-42.5 -78t-79.5 -58.5t-118 -22q-109 0 -177 81.5t-68 242.5q0 189 83 287t226 98q68 0 111.5 -36t43.5 -89v-41h-6q-48 50 -145 50q-172 0 -178 -222q18 39 57.5 62.5t88.5 23.5q92 0 155 -57t63 -156zM188 233q0 -55 30 -92.5t83 -37.5
q111 0 111 118q0 54 -31 82t-78 28q-55 0 -85 -28t-30 -70z" />
    <glyph glyph-name="seven" unicode="7" horiz-adv-x="222" 
 />
    <glyph glyph-name="eight" unicode="8" 
d="M539 195q0 -96 -59.5 -151.5t-191.5 -55.5q-108 0 -171.5 54t-63.5 143q0 53 35.5 100t82.5 61q-49 17 -81.5 53.5t-32.5 94.5q0 92 69 147.5t175 55.5q104 0 169.5 -55.5t65.5 -137.5q0 -116 -115 -150q46 -16 82 -59.5t36 -99.5zM292 578q-46 0 -72 -24.5t-26 -61.5
q0 -40 26.5 -64t79.5 -24q47 0 73 23.5t26 60.5q0 90 -107 90zM404 199q0 43 -29 70t-83 27q-41 0 -71.5 -26t-30.5 -63q0 -50 26 -75t84 -25q52 0 78 25.5t26 66.5z" />
    <glyph glyph-name="nine" unicode="9" horiz-adv-x="580" 
d="M538 359q0 -185 -72 -278t-200 -93q-85 0 -137.5 34t-52.5 92v49h5q59 -57 178 -57q71 0 104.5 49.5t37.5 162.5q-14 -40 -47 -64t-79 -24q-107 0 -171.5 59t-64.5 155q0 114 67.5 183.5t190.5 69.5q241 0 241 -338zM400 445q0 137 -114 137q-51 0 -80 -33.5t-29 -88.5
q0 -59 28.5 -87.5t78.5 -28.5q54 0 85 27.5t31 73.5z" />
    <glyph glyph-name="colon" unicode=":" horiz-adv-x="333" 
d="M253 454q0 -35 -25.5 -60.5t-60.5 -25.5t-60.5 25.5t-25.5 60.5q0 36 25.5 61t60.5 25t60.5 -25t25.5 -61zM253 86q0 -35 -25.5 -60.5t-60.5 -25.5t-60.5 25.5t-25.5 60.5t25.5 60.5t60.5 25.5t60.5 -25.5t25.5 -60.5z" />
    <glyph glyph-name="semicolon" unicode=";" horiz-adv-x="333" 
d="M256 453q0 -35 -25.5 -60.5t-60.5 -25.5t-60.5 25.5t-25.5 60.5q0 36 25.5 61t60.5 25t60.5 -25t25.5 -61zM248 34q0 -67 -41.5 -119.5t-98.5 -52.5h-27v6q19 18 32.5 49t13.5 54q0 29 -16 45q-27 27 -27 58t22.5 52.5t55.5 21.5q40 0 63 -29.5t23 -84.5z" />
    <glyph glyph-name="less" unicode="&#x3c;" 
d="M521 494q0 -65 -76 -94q-119 -45 -254 -109q135 -74 326 -151v-30q0 -52 -73 -52q-15 0 -54 15q-73 28 -180 84.5t-174 104.5v16q0 44 57 78q61 36 201 97t227 88v-47z" />
    <glyph glyph-name="equal" unicode="=" 
d="M457 356h-401v47q0 23 18.5 38t49.5 15h401v-48q0 -19 -20.5 -35.5t-47.5 -16.5zM457 163h-401v47q0 22 18.5 37t49.5 15h401v-47q0 -22 -20 -37t-48 -15z" />
    <glyph glyph-name="greater" unicode="&#x3e;" 
d="M62 101q0 65 76 94q128 48 254 109q-128 71 -326 151v30q0 52 73 52q18 0 54 -15q73 -28 180 -84t174 -105v-16q0 -44 -57 -78q-61 -36 -201 -97t-227 -88v47z" />
    <glyph glyph-name="question" unicode="?" horiz-adv-x="472" 
d="M439 529q0 -39 -15.5 -69t-54.5 -63l-80 -68q-27 -23 -35 -39t-8 -43v-36h-47q-23 0 -42 17.5t-19 41.5q0 73 65 126l71 58q30 25 30 60q0 75 -100 75q-114 0 -163 -67h-5v47q0 56 48.5 97.5t140.5 41.5q100 0 157 -51.5t57 -127.5zM297 86q0 -35 -25.5 -60.5
t-60.5 -25.5t-60.5 25.5t-25.5 60.5t25.5 60.5t60.5 25.5t60.5 -25.5t25.5 -60.5z" />
    <glyph glyph-name="at" unicode="@" horiz-adv-x="757" 
d="M728 407q0 -112 -56.5 -182t-142.5 -70q-68 0 -88 64q-50 -64 -115 -64q-48 0 -86.5 46t-38.5 113q0 96 61 163t154 67q44 0 88.5 -29t44.5 -60q0 -19 -13 -87q-10 -47 -10 -85q0 -39 21 -39q30 -1 58 40.5t28 118.5q0 97 -59 157.5t-166 60.5q-114 0 -194 -82.5
t-80 -217.5q0 -116 66 -181t174 -65q106 0 170 32v-33q0 -54 -54 -69q-48 -13 -134 -13q-133 0 -226.5 88t-93.5 233q0 160 107 275t275 115q136 0 223 -83.5t87 -212.5zM446 429q-17 15 -45 15q-32 0 -58 -34.5t-26 -85.5q0 -66 38 -66q45 0 66 57q14 40 25 114z" />
    <glyph glyph-name="A" unicode="A" horiz-adv-x="622" 
d="M612 0h-56q-40 0 -64 19.5t-28 46.5q-9 68 -19 109h-273q-20 -85 -36 -175h-53q-63 0 -63 66q0 84 80 311t153 308h56q75 0 111 -63q51 -92 112 -281t80 -341zM414 284q-17 69 -47 146.5t-59 128.5q-69 -123 -106 -275h212z" />
    <glyph glyph-name="B" unicode="B" horiz-adv-x="605" 
d="M564 212q0 -99 -68 -157t-167 -58h-74q-191 0 -191 163v497q28 10 84.5 20.5t96.5 10.5h83q100 0 162 -49t62 -132q0 -113 -109 -145q51 -14 86 -59t35 -91zM415 495q0 41 -31 60t-75 19h-51q-15 0 -59 -7v-155h105q49 0 80 20.5t31 62.5zM426 208q0 54 -27.5 76
t-89.5 22h-109v-141q0 -18 17.5 -30.5t42.5 -12.5h56q54 0 82 23t28 63z" />
    <glyph glyph-name="C" unicode="C" horiz-adv-x="598" 
d="M586 502h-5q-29 38 -82.5 56t-105.5 18q-93 0 -153 -61t-60 -160q0 -118 59 -180t159 -62q51 0 102 18.5t79 47.5h5v-51q0 -65 -61.5 -99.5t-142.5 -34.5q-140 0 -239 95.5t-99 245.5q0 159 97 259.5t253 100.5q87 0 140.5 -36t53.5 -104v-53z" />
    <glyph glyph-name="D" unicode="D" horiz-adv-x="665" 
d="M627 353q0 -155 -90 -257t-225 -102h-57q-90 0 -140 37.5t-50 114.5v515q25 10 77.5 18t91.5 8h71q61 0 117 -20.5t102.5 -60t74.5 -105t28 -148.5zM487 334q0 112 -56 175t-147 63h-30l-52 -7v-393q0 -31 15.5 -44.5t53.5 -13.5h23q84 0 138.5 63t54.5 157z" />
    <glyph glyph-name="E" unicode="E" horiz-adv-x="560" 
d="M538 128l-1 -48q-1 -44 -32.5 -64.5t-116.5 -20.5h-73q-125 0 -190 68t-65 199v127q0 104 13 193q8 58 34 80.5t71 22.5h358v-46q0 -72 -92 -72h-235q-10 -71 -10 -160h264v-49q0 -63 -83 -63h-181v-40q0 -86 31 -114t114 -28h44q83 0 150 15z" />
    <glyph glyph-name="F" unicode="F" horiz-adv-x="491" 
d="M486 642q0 -27 -20.5 -49t-57.5 -22h-211v-170h247v-41q0 -31 -20.5 -49.5t-45.5 -18.5h-176v-292h-57q-80 0 -80 80v499q0 62 26 84t88 22h307v-43z" />
    <glyph glyph-name="G" unicode="G" horiz-adv-x="654" 
d="M612 159q0 -82 -53 -126.5t-175 -44.5q-142 0 -242 95.5t-100 250.5q0 156 102 259.5t273 103.5q89 0 136.5 -40.5t47.5 -94.5v-47h-5q-68 58 -195 58q-95 0 -156.5 -62.5t-61.5 -157.5q0 -123 59 -182t158 -59q47 0 64.5 16t17.5 49v55q0 24 -2.5 49t-5.5 38l-2 13h70
q28 0 49 -20t21 -43v-110z" />
    <glyph glyph-name="H" unicode="H" horiz-adv-x="677" 
d="M612 0h-55q-32 0 -56 24.5t-24 67.5v202h-276v-294h-53q-36 0 -59.5 24.5t-23.5 67.5v593h67q29 0 48.5 -21t19.5 -51v-204h277v276h62q28 0 50.5 -20.5t22.5 -51.5v-613z" />
    <glyph glyph-name="I" unicode="I" horiz-adv-x="272" 
d="M203 0h-52q-33 0 -58 24.5t-25 66.5v594h62q28 0 50.5 -20.5t22.5 -52.5v-612z" />
    <glyph glyph-name="J" unicode="J" horiz-adv-x="390" 
d="M335 184q0 -88 -51.5 -142t-152.5 -54q-55 0 -91 23.5t-36 55.5v63h5q37 -22 103 -22q46 0 65.5 20t19.5 62v495h46q92 0 92 -93v-408z" />
    <glyph glyph-name="K" unicode="K" horiz-adv-x="609" 
d="M109 685q46 0 68.5 -26t22.5 -66v-214q3 5 25 37.5l28.5 41.5l25.5 36.5t29 40.5l27 35t31.5 39t30.5 34q26 28 44 35t60 7h94v-5q-42 -43 -125.5 -144t-132.5 -171l37 -55l42 -61l39 -52.5t47 -56.5t48 -46q26 -21 54 -28q-9 -38 -28.5 -53.5t-59.5 -15.5q-57 0 -96 44
q-106 123 -220 305v-346h-45q-46 0 -68 27t-22 66v592h44z" />
    <glyph glyph-name="L" unicode="L" horiz-adv-x="521" 
d="M516 93q0 -49 -31.5 -74t-111.5 -25h-53q-121 0 -185.5 65.5t-64.5 188.5v437h56q85 0 85 -100v-328q0 -80 26 -111t101 -31h35q81 0 143 25v-47z" />
    <glyph glyph-name="M" unicode="M" horiz-adv-x="901" 
d="M847 0h-52q-41 0 -64.5 23t-23.5 68q0 68 -9 212.5t-17 193.5q-28 -68 -32 -81l-96 -294q-26 -79 -56 -122h-37q-73 0 -110 109l-98 289q-17 50 -38 100q-12 -68 -21 -229.5t-9 -268.5h-48q-39 0 -62.5 24t-23.5 67q0 112 18 300.5t37 293.5h29q71 0 119.5 -30.5
t68.5 -85.5l95 -268q30 -82 39 -130q4 21 19 70l79 243q24 76 53.5 129t53.5 72h16q58 0 93.5 -36t43.5 -106q10 -86 21.5 -265.5t11.5 -277.5z" />
    <glyph glyph-name="N" unicode="N" horiz-adv-x="688" 
d="M623 0h-54q-49 0 -93.5 34.5t-102.5 146.5l-125 243q-28 56 -46 80v-504h-54q-33 0 -58 24t-25 66v595h68q66 0 112.5 -34.5t81.5 -105.5l120 -240l40 -92v472h61q27 0 51 -23.5t24 -55.5v-606z" />
    <glyph glyph-name="O" unicode="O" horiz-adv-x="725" 
d="M683 353q0 -161 -87.5 -263t-240.5 -102q-132 0 -222.5 96.5t-90.5 247.5q0 163 87.5 264t240.5 101q130 0 221.5 -93.5t91.5 -250.5zM542 334q0 119 -48.5 180.5t-136.5 61.5q-77 0 -125.5 -60t-48.5 -163q0 -246 185 -246q81 0 127.5 58t46.5 169z" />
    <glyph glyph-name="P" unicode="P" horiz-adv-x="563" 
d="M548 477q0 -107 -65.5 -170.5t-165.5 -63.5q-72 0 -115 23v-266h-54q-33 0 -58 24t-25 74v560q30 11 86.5 21.5t91.5 10.5h77q102 0 165 -56t63 -157zM407 465q0 58 -25 83.5t-79 25.5h-44q-9 0 -57 -9v-194q41 -12 97 -12q52 0 80 28t28 78z" />
    <glyph glyph-name="Q" unicode="Q" horiz-adv-x="735" 
d="M297 -7q-45 9 -88.5 34.5t-81.5 66.5t-61.5 103.5t-23.5 135.5q0 161 84.5 262.5t248.5 101.5q125 0 216.5 -93.5t91.5 -250.5q0 -123 -60.5 -210.5t-133.5 -102.5q80 -26 218 -26v-44q0 -66 -74 -66q-75 0 -173.5 26.5t-162.5 62.5zM542 336q0 240 -184 240
q-81 0 -128 -61t-47 -162q0 -123 50 -185t142 -62q76 0 121.5 65.5t45.5 164.5z" />
    <glyph glyph-name="R" unicode="R" horiz-adv-x="603" 
d="M583 17q-12 -13 -25 -17.5t-41 -4.5q-75 0 -100 61l-51 124q-11 27 -22 44t-24.5 25t-23 11t-26.5 6q-54 9 -68 9v-275h-44q-45 0 -69 25t-24 67v574q22 8 80 16.5t96 8.5h76q101 0 163 -55t62 -142q0 -69 -40.5 -121t-100.5 -61q53 -22 85 -96l55 -128q9 -22 42 -71z
M301 573h-38q-35 0 -61 -7v-181q30 -6 98 -6q44 0 73.5 24.5t29.5 68.5q0 58 -26 79.5t-76 21.5z" />
    <glyph glyph-name="S" unicode="S" horiz-adv-x="572" 
d="M527 212q0 -103 -67.5 -163.5t-190.5 -60.5q-101 0 -155 36.5t-54 98.5v61h3q83 -74 191 -74q74 0 105 23t31 67q0 38 -29.5 57.5t-133.5 41.5q-182 39 -182 176q0 90 70.5 156t186.5 66q109 0 157.5 -37t48.5 -88v-63h-4q-63 67 -178 67q-145 0 -145 -88
q0 -32 33.5 -52.5t126.5 -40.5q186 -39 186 -183z" />
    <glyph glyph-name="T" unicode="T" horiz-adv-x="555" 
d="M548 642q0 -26 -25 -51.5t-57 -25.5h-126v-565h-55q-37 0 -60 24t-23 68v473h-197v45q0 28 22 51.5t61 23.5h460v-43z" />
    <glyph glyph-name="U" unicode="U" horiz-adv-x="663" 
d="M612 309q0 -154 -72.5 -237.5t-216.5 -83.5q-126 0 -199.5 81t-73.5 228v388h53q36 0 60.5 -30t24.5 -96v-253q0 -97 35.5 -143.5t113.5 -46.5q71 0 104 46t33 139v384h52q40 0 63 -30.5t23 -91.5v-254z" />
    <glyph glyph-name="V" unicode="V" horiz-adv-x="618" 
d="M507 316q-83 -203 -158 -321h-12q-65 0 -99 55q-82 134 -144 304t-85 331h79q36 0 58.5 -21t28.5 -54q36 -208 138 -424q116 250 153 499h76q26 0 42.5 -15.5t16.5 -43.5q0 -29 -30.5 -129t-63.5 -181z" />
    <glyph glyph-name="W" unicode="W" horiz-adv-x="953" 
d="M867 347q-61 -192 -154 -353h-33q-42 0 -66 43q-88 157 -137 380q-55 -249 -160 -423h-32q-45 0 -69 43q-75 133 -130.5 307t-76.5 341h79q33 0 55 -23.5t27 -54.5q34 -207 113 -397q81 193 131 449h45q89 0 107 -91q36 -178 113 -358q95 233 128 474h71q25 0 42.5 -17
t17.5 -47q0 -51 -71 -273z" />
    <glyph glyph-name="X" unicode="X" horiz-adv-x="684" 
d="M669 35q-18 -22 -39 -32.5t-59 -10.5q-48 0 -87 29.5t-90 103.5l-86 126q-115 -136 -146 -251h-67q-25 0 -40.5 15.5t-15.5 37.5q0 40 15 75q29 72 114 163l65 70l-81 113q-105 147 -122 211h94q29 0 60.5 -23t78.5 -93l83 -124q82 95 113.5 144.5t43.5 96.5h52
q61 0 61 -69q0 -62 -194 -282l91 -133q68 -99 156 -167z" />
    <glyph glyph-name="Y" unicode="Y" horiz-adv-x="571" 
d="M556 632q0 -37 -74.5 -157.5t-127.5 -182.5v-292h-57q-33 0 -58 24t-25 66v202q-60 78 -118.5 188t-90.5 205h64q37 0 60.5 -14.5t31.5 -33.5q57 -134 131 -239q40 55 83.5 136t64.5 151h60q27 0 41.5 -14.5t14.5 -38.5z" />
    <glyph glyph-name="Z" unicode="Z" horiz-adv-x="587" 
d="M547 71q0 -28 -21 -49.5t-57 -21.5h-343q-38 0 -62 23t-24 63t26 82.5t77 99.5l170 192q63 71 74 105h-347v37q0 83 102 83h311q93 0 93 -90q0 -65 -83 -158l-169 -189q-84 -95 -92 -128h345v-49z" />
    <glyph glyph-name="bracketleft" unicode="[" horiz-adv-x="320" 
d="M309 -170h-230v890h171q28 0 43.5 -15.5t15.5 -41.5v-32h-128v-712h73q24 0 39.5 -15t15.5 -41v-33z" />
    <glyph glyph-name="backslash" unicode="\" horiz-adv-x="427" 
d="M427 0h-55q-31 0 -65 23.5t-52 65.5l-251 596h65q27 0 56.5 -19.5t42.5 -50.5z" />
    <glyph glyph-name="bracketright" unicode="]" horiz-adv-x="320" 
d="M18 720h230v-890h-171q-28 0 -43.5 15.5t-15.5 41.5v32h128v712h-73q-24 0 -39.5 15t-15.5 41v33z" />
    <glyph glyph-name="asciicircum" unicode="^" horiz-adv-x="501" 
d="M441 418q-35 -10 -68.5 3.5t-42.5 39.5q-8 23 -35 72t-49 83q-86 -130 -117 -199h-18q-23 0 -37 11t-14 28q0 6 12 30q22 48 66 117t87 117h21q24 0 53 -36q31 -40 77 -124.5t65 -141.5z" />
    <glyph glyph-name="underscore" unicode="_" horiz-adv-x="565" 
d="M565 -285h-565v85h565v-85z" />
    <glyph glyph-name="grave" unicode="`" horiz-adv-x="529" 
d="M137 714q0 51 56 51q27 0 47 -11.5t48 -36.5q35 -32 75 -93v-5h-45q-58 0 -115 24q-66 27 -66 71z" />
    <glyph glyph-name="a" unicode="a" horiz-adv-x="529" 
d="M488 184q0 -85 -57 -139t-147 -54h-27q-95 0 -155.5 48t-60.5 123q0 78 63.5 123.5t204.5 45.5h47v7q0 56 -27 77.5t-89 21.5q-65 0 -108.5 -19t-62.5 -43h-5v43q0 52 49 92t147 40q48 0 87 -12t71.5 -38.5t51 -75.5t18.5 -116v-124zM357 183v52h-48q-73 0 -102 -16.5
t-29 -51.5q0 -32 24.5 -49.5t68.5 -17.5q86 0 86 83z" />
    <glyph glyph-name="b" unicode="b" horiz-adv-x="631" 
d="M589 281q0 -125 -74 -209t-194 -84q-106 0 -180 78t-74 197v457h46q40 0 64 -23.5t24 -69.5v-157q57 82 146 82q104 0 173 -76.5t69 -194.5zM450 258q0 95 -32.5 135t-96.5 40q-51 0 -85 -44t-34 -107q0 -175 133 -175q50 0 82.5 43t32.5 108z" />
    <glyph glyph-name="c" unicode="c" horiz-adv-x="510" 
d="M478 366h-5q-14 25 -52.5 40.5t-93.5 15.5q-59 0 -103 -42t-44 -101q0 -74 40.5 -119.5t108.5 -45.5q104 0 142 50h5v-62q0 -49 -44 -80.5t-116 -31.5q-113 0 -194.5 77.5t-81.5 191.5q0 120 79 203t212 83q64 0 105.5 -33.5t41.5 -82.5v-63z" />
    <glyph glyph-name="d" unicode="d" horiz-adv-x="615" 
d="M550 249q0 -123 -62.5 -192t-196.5 -69q-106 0 -178.5 80t-72.5 192q0 135 63.5 213.5t179.5 78.5q40 0 79 -25t55 -60v253h41q46 0 69 -24.5t23 -66.5v-380zM415 255q0 95 -36 139.5t-95 44.5q-50 0 -81 -43.5t-31 -109.5q0 -83 38 -134t97 -51q108 0 108 154z" />
    <glyph glyph-name="e" unicode="e" horiz-adv-x="558" 
d="M520 343q0 -73 -58.5 -102t-194.5 -29h-88q7 -50 49 -80.5t102 -30.5q110 0 165 51h5v-42q0 -122 -195 -122q-105 0 -185 76t-80 195q0 133 73.5 213t190.5 80q88 0 152 -58t64 -151zM394 359q0 40 -27 60.5t-75 20.5t-79.5 -33.5t-33.5 -81.5l-1 -18h60q93 0 124.5 11.5
t31.5 40.5z" />
    <glyph glyph-name="f" unicode="f" horiz-adv-x="368" 
d="M378 600h-4q-36 12 -78 12q-96 0 -96 -91v-48h154v-37q0 -34 -29.5 -55t-66.5 -21h-58v-360h-54q-33 0 -57 23t-24 57v452q0 31 11.5 63.5t34.5 63.5t65.5 51t98.5 20q45 0 74 -23t29 -62v-45z" />
    <glyph glyph-name="g" unicode="g" horiz-adv-x="606" 
d="M537 224q0 -25 2 -73q2 -44 2 -69q0 -108 -69.5 -182t-194.5 -74q-82 0 -134.5 34.5t-52.5 83.5v61h6q55 -58 171 -58q141 0 141 124q0 19 -1 28q0 4 -0.5 14.5t-0.5 12.5v13q-9 -32 -47 -56t-92 -24q-98 0 -161 61.5t-63 156.5q0 118 73.5 196.5t200.5 78.5
q100 0 160 -65.5t60 -170.5v-92zM302 433q-52 0 -86.5 -39.5t-34.5 -99.5q0 -53 29.5 -87.5t77.5 -34.5q51 0 83 36.5t32 99.5q0 61 -27.5 93t-73.5 32z" />
    <glyph glyph-name="h" unicode="h" horiz-adv-x="610" 
d="M545 0h-44q-42 0 -66.5 23.5t-24.5 66.5v220q0 63 -29.5 93t-77.5 30q-38 0 -67.5 -31t-29.5 -96v-306h-44q-92 0 -92 90v630h42q46 0 70.5 -23.5t24.5 -62.5v-154q17 28 49.5 50t67.5 22q105 0 163 -61t58 -175v-316z" />
    <glyph glyph-name="i" unicode="i" horiz-adv-x="333" 
d="M227 657q0 -32 -23.5 -55.5t-55.5 -23.5t-55 23.5t-23 55.5t23 55t55 23t55.5 -23t23.5 -55zM323 76q0 -43 -18.5 -62t-61.5 -19q-78 0 -119.5 43t-41.5 125v365h38q96 0 96 -100v-252q0 -40 18.5 -55.5t63.5 -15.5h25v-29z" />
    <glyph glyph-name="j" unicode="j" horiz-adv-x="303" 
d="M238 659q0 -32 -22.5 -55.5t-54.5 -23.5t-55.5 23.5t-23.5 55.5t23.5 55t55.5 23t54.5 -23t22.5 -55zM225 4q0 -83 -50.5 -131t-131.5 -48q-39 0 -63 18t-24 43v49l65 4q30 2 50 21.5t20 56.5v511h38q46 0 71 -24t25 -69v-431z" />
    <glyph glyph-name="k" unicode="k" horiz-adv-x="572" 
d="M113 720q47 0 69.5 -24t22.5 -65v-322q109 143 165 196q37 35 107 35h77v-5q-27 -23 -101 -106t-118 -139q100 -124 133 -157q34 -34 55 -47.5t49 -22.5q-11 -34 -31.5 -50t-59.5 -16q-51 0 -88 37q-70 72 -188 230v-263l-43 -1q-46 -1 -69 23t-23 72v625h43z" />
    <glyph glyph-name="l" unicode="l" horiz-adv-x="326" 
d="M331 76q0 -81 -90 -81q-83 0 -127 43t-44 125v557h38q48 0 72 -24.5t24 -65.5v-454q0 -40 21 -55.5t70 -15.5h36v-29z" />
    <glyph glyph-name="m" unicode="m" horiz-adv-x="914" 
d="M849 0h-33q-54 0 -78 24.5t-24 73.5v208q0 64 -26.5 95.5t-72.5 31.5q-42 0 -66.5 -29t-24.5 -83v-321h-36q-45 0 -71.5 25.5t-26.5 72.5v208q0 64 -27 95.5t-73 31.5q-40 0 -65.5 -30.5t-25.5 -84.5v-318h-36q-42 0 -69.5 26.5t-27.5 71.5v209q0 114 60.5 179.5
t179.5 65.5q101 0 164 -84q24 38 65.5 61t89.5 23q98 0 161 -59t63 -169v-324z" />
    <glyph glyph-name="n" unicode="n" horiz-adv-x="605" 
d="M540 0h-36q-44 0 -71 25t-27 63v214q0 131 -109 131q-44 0 -71 -32t-27 -89v-312h-40q-42 0 -68 25t-26 63v233q0 94 62.5 162.5t180.5 68.5q99 0 165.5 -63.5t66.5 -174.5v-314z" />
    <glyph glyph-name="o" unicode="o" horiz-adv-x="602" 
d="M40 260q0 127 70.5 209.5t196.5 82.5q117 0 186 -80t69 -193q0 -127 -70.5 -209t-196.5 -82q-117 0 -186 79.5t-69 192.5zM423 260q0 172 -128 172q-56 0 -86 -42t-30 -111q0 -171 128 -171q57 0 86.5 41.5t29.5 110.5z" />
    <glyph glyph-name="p" unicode="p" horiz-adv-x="620" 
d="M580 286q0 -133 -64 -215.5t-179 -82.5q-43 0 -79 22t-57 58v-238h-42q-38 0 -66 25.5t-28 67.5v326q0 141 66.5 222t203.5 81q104 0 174.5 -80.5t70.5 -185.5zM442 251q0 94 -31.5 138t-96.5 44q-54 0 -84.5 -43t-30.5 -114q0 -80 36 -124.5t97 -44.5q49 0 79.5 40
t30.5 104z" />
    <glyph glyph-name="q" unicode="q" horiz-adv-x="619" 
d="M314 552q115 0 177.5 -72t62.5 -200v-450l-44 1q-89 2 -89 89v138q-16 -32 -52.5 -51t-78.5 -19q-104 0 -177 74.5t-73 191.5q0 129 76 213.5t198 84.5zM297 433q-49 0 -86 -42.5t-37 -112.5q0 -83 33.5 -127t96.5 -44q117 0 117 157q0 169 -124 169z" />
    <glyph glyph-name="r" unicode="r" horiz-adv-x="386" 
d="M376 409h-5q-40 16 -78 16q-93 0 -93 -115v-310h-37q-46 0 -72 22.5t-26 63.5v248q0 89 49.5 150t149.5 61q57 0 84.5 -26t27.5 -62v-48z" />
    <glyph glyph-name="s" unicode="s" horiz-adv-x="492" 
d="M453 170q0 -86 -58.5 -134t-166.5 -48q-73 0 -123 32t-50 74v61h5q22 -21 68.5 -36t93.5 -15q98 0 98 59q0 24 -22.5 37t-89.5 22q-86 12 -127.5 47t-41.5 96q0 78 64 132.5t165 54.5q84 0 128 -35t44 -80v-51h-5q-21 22 -64 36t-90 14q-108 0 -108 -60q0 -21 20.5 -31.5
t87.5 -21.5q172 -28 172 -153z" />
    <glyph glyph-name="t" unicode="t" horiz-adv-x="405" 
d="M70 518q0 38 8 59t31 48q32 37 63 37h31v-122h187v-55q0 -24 -21 -44t-59 -20h-107v-211q0 -97 85 -97q66 0 97 19h5v-48q0 -42 -30.5 -66t-87.5 -24q-100 0 -151 52t-51 148v324z" />
    <glyph glyph-name="u" unicode="u" horiz-adv-x="604" 
d="M539 242q0 -254 -236 -254q-103 0 -170.5 65.5t-67.5 179.5v307h25q111 0 111 -96v-198q0 -71 30 -105t79 -34q43 0 68.5 32t25.5 98v303h24q111 0 111 -96v-202z" />
    <glyph glyph-name="v" unicode="v" horiz-adv-x="517" 
d="M502 476q0 -46 -46 -171q-71 -194 -156 -311h-26q-30 0 -48.5 12t-39.5 42q-58 88 -113 237.5t-64 254.5h72q32 0 54 -20t26 -44q35 -182 103 -315q88 173 118 379h57q34 0 48.5 -15t14.5 -49z" />
    <glyph glyph-name="w" unicode="w" horiz-adv-x="810" 
d="M795 485q0 -18 -17 -83.5t-45 -142.5q-58 -166 -125 -265h-22q-53 0 -92 72q-67 122 -89 242q-14 -66 -54 -167t-74 -147h-18q-28 0 -54 22t-42 50q-119 210 -154 474h72q32 0 53 -20t25 -45q29 -169 86 -292q50 109 102 337h44q78 0 95 -76q34 -155 87 -261
q63 140 101 360h56q65 0 65 -58z" />
    <glyph glyph-name="x" unicode="x" horiz-adv-x="554" 
d="M542 59q0 -30 -22.5 -48.5t-65.5 -18.5q-42 0 -74.5 24t-68.5 79l-59 89q-48 -55 -71 -95q-22 -38 -30 -91h-61q-23 0 -39 14t-16 34q0 45 25 88t79 101l44 47l-57 82l-53.5 78t-28 50t-14.5 48h80q47 0 119 -102l55 -78q63 70 82.5 103.5t26.5 75.5h51q28 0 41.5 -16
t13.5 -41q0 -40 -63 -122q-30 -39 -82 -98l59 -86q44 -64 69 -87t60 -30z" />
    <glyph glyph-name="y" unicode="y" horiz-adv-x="508" 
d="M374 116q-74 -174 -125 -232.5t-125 -58.5q-39 0 -66.5 23t-27.5 60v26l76 5q36 2 54.5 21.5t40.5 77.5q-53 80 -115.5 243.5t-75.5 258.5h71q28 0 50.5 -17.5t27.5 -45.5q29 -157 108 -311q35 80 65.5 187.5t39.5 186.5h58q63 0 63 -63q0 -37 -45 -165.5t-74 -195.5z
" />
    <glyph glyph-name="z" unicode="z" horiz-adv-x="505" 
d="M465 63q0 -24 -21.5 -43.5t-47.5 -19.5h-263q-45 0 -68.5 19t-23.5 52q0 60 82 148l136 148q35 40 46 61h-265v41q0 31 23 51t66 20h245q43 0 63.5 -21t20.5 -48q0 -68 -69 -143l-135 -146q-36 -40 -51 -67h262v-52z" />
    <glyph glyph-name="braceleft" unicode="{" horiz-adv-x="370" 
d="M129 396q0 22 -6 76q-1 9 -1 88q0 71 40.5 115.5t112.5 44.5h27q22 0 40.5 -13t18.5 -37v-40h-75q-31 0 -46 -26.5t-15 -66.5q0 -65 1 -72q5 -37 5 -65q0 -105 -89 -121v-2q87 -14 87 -120q0 -54 -3 -76q-1 -7 -1 -70q0 -39 16 -65t49 -26h17q26 0 39.5 -13.5t13.5 -36.5
v-40h-84q-71 0 -112.5 44t-41.5 114q0 76 1 85q4 36 4 83q0 67 -54 75q-48 7 -48 43v38l48 8q26 4 41 25t15 51z" />
    <glyph glyph-name="bar" unicode="|" horiz-adv-x="257" 
d="M156 -170h-21q-15 0 -28 12.5t-13 32.5v845h20q16 0 29 -11t13 -29v-850z" />
    <glyph glyph-name="braceright" unicode="}" horiz-adv-x="370" 
d="M242 154q0 -22 6 -76q1 -9 1 -88q0 -71 -40.5 -115.5t-112.5 -44.5h-27q-23 0 -41 13t-18 37v40h75q31 0 46 26.5t15 66.5q0 65 -1 72q-5 37 -5 65q0 105 89 121v2q-87 14 -87 120q0 54 3 76q1 11 1 70q0 39 -16 65t-49 26h-17q-26 0 -39.5 13.5t-13.5 36.5v40h84
q71 0 112.5 -44t41.5 -114q0 -76 -1 -85q-4 -36 -4 -83q0 -67 54 -75q48 -7 48 -43v-38l-48 -8q-26 -4 -41 -25t-15 -51z" />
    <glyph glyph-name="asciitilde" unicode="~" 
d="M521 326q0 -53 -36 -88.5t-97 -35.5q-6 0 -12.5 0.5t-11.5 1.5t-11.5 3t-10.5 3t-10.5 4t-9 4t-9.5 5t-9 5t-10 5.5t-9 5.5q-44 26 -78 26q-23 0 -39 -20t-16 -53h-32q-20 0 -35 17t-15 48q0 65 41 97t90 32q41 0 101 -34q52 -31 83 -31q29 0 42 16.5t13 53.5h39
q16 0 29 -19.5t13 -45.5z" />
    <glyph glyph-name="exclamdown" unicode="&#xa1;" horiz-adv-x="318" 
d="M249 454q0 -35 -25 -60.5t-61 -25.5q-35 0 -60.5 25.5t-25.5 60.5q0 36 25.5 61t60.5 25q36 0 61 -25t25 -61zM95 -86l10 386h41q36 0 56.5 -22t21.5 -62l10 -386h-61q-36 0 -57.5 22.5t-20.5 61.5z" />
    <glyph glyph-name="cent" unicode="&#xa2;" 
d="M318 673q62 0 62 -69v-62q50 -7 82.5 -37.5t32.5 -73.5v-67h-7q-32 56 -144 56q-58 0 -100.5 -41.5t-42.5 -100.5q0 -74 40 -118.5t107 -44.5q47 0 86 13.5t52 35.5h7v-64q0 -37 -30.5 -65.5t-82.5 -38.5v-138h-21q-33 0 -51 19t-18 51v67q-97 15 -162 88.5t-65 174.5
q0 105 60.5 182.5t166.5 97.5v135h28z" />
    <glyph glyph-name="sterling" unicode="&#xa3;" 
d="M250 117h280v-45q0 -72 -101 -72h-357v37q0 37 44 87q45 50 45 107q0 35 -7 56h-120v25q0 74 74 74h26q-12 62 -12 91q0 92 67.5 150t172.5 58q55 0 94 -29t39 -68v-52q-3 1 -5 0q-48 30 -127 30q-43 0 -71 -27.5t-28 -73.5q0 -45 9 -79h183v-33q0 -31 -21 -48.5
t-56 -17.5h-95q5 -23 5 -45q0 -76 -39 -125z" />
    <glyph glyph-name="currency" unicode="&#xa4;" 
d="M540 163h6v-50q0 -46 -44 -85.5t-120 -39.5q-112 0 -184 66t-88 182h-86v31q0 21 11.5 34t29.5 13h38q-1 18 -1 30l1 28h-79v34q0 20 12.5 32.5t28.5 12.5h45q20 118 96 182t181 64q69 0 114 -38t45 -93v-45h-6q-20 26 -56.5 42t-77.5 16q-136 0 -157 -128h214v-29
q0 -22 -13.5 -36t-35.5 -14h-173q-1 -17 -1 -28l1 -30h222v-32q0 -20 -13 -33t-36 -13h-166q10 -67 48 -98t109 -31q41 0 78.5 15.5t56.5 40.5z" />
    <glyph glyph-name="yen" unicode="&#xa5;" 
d="M562 637q0 -27 -56.5 -106t-120.5 -152h145v-43q0 -18 -18.5 -31.5t-46.5 -13.5h-108v-82h173v-43q0 -17 -19 -31t-46 -14h-108v-121h-57q-24 0 -43 19.5t-19 48.5v53h-170v36q0 23 17 37.5t47 14.5h106v82h-170v36q0 23 17 37.5t47 14.5h80q-147 179 -189 306h63
q70 0 90 -40q59 -120 129 -205q36 42 81.5 114.5t70.5 130.5h55q24 0 37 -13.5t13 -34.5z" />
    <glyph glyph-name="brokenbar" unicode="&#xa6;" horiz-adv-x="257" 
d="M156 322h-21q-15 0 -28 12.5t-13 32.5v353h20q16 0 29 -11t13 -29v-358zM156 -170h-21q-15 0 -28 12.5t-13 32.5v353h20q16 0 29 -11t13 -29v-358z" />
    <glyph glyph-name="section" unicode="&#xa7;" 
d="M437 153q60 -41 60 -110q0 -85 -58.5 -134t-168.5 -49q-82 0 -128 34t-46 83v54h5q27 -30 71 -48.5t93 -18.5q99 0 99 67q0 19 -9 31t-42.5 28.5t-103.5 40.5q-65 22 -100 62.5t-35 91.5q0 40 26.5 74t66.5 50q-71 37 -71 118q0 74 63.5 121.5t170.5 47.5q63 0 102.5 -30
t39.5 -74v-51h-4q-56 53 -150 53q-45 0 -70 -17.5t-25 -36.5q0 -29 21 -45.5t96 -44.5q82 -30 128.5 -68.5t46.5 -102.5q0 -41 -23.5 -77t-54.5 -49zM329 332q-71 25 -105 40q-35 -24 -35 -62q0 -56 78 -83q58 -19 104 -38q28 23 28 69q0 49 -70 74z" />
    <glyph glyph-name="dieresis" unicode="&#xa8;" horiz-adv-x="505" 
d="M431 684q0 -29 -21.5 -50.5t-50.5 -21.5t-50 21.5t-21 50.5t21 49.5t50 20.5t50.5 -20.5t21.5 -49.5zM217 684q0 -29 -21.5 -50.5t-50.5 -21.5t-50 21.5t-21 50.5t21 49.5t50 20.5t50.5 -20.5t21.5 -49.5z" />
    <glyph glyph-name="copyright" unicode="&#xa9;" horiz-adv-x="806" 
d="M742 332q0 -142 -101 -243t-243 -101t-243 101t-101 243t101 243t243 101t243 -101t101 -243zM676 332q0 115 -81.5 196.5t-196.5 81.5t-196.5 -81.5t-81.5 -196.5t81.5 -196.5t196.5 -81.5t196.5 81.5t81.5 196.5zM545 403h-8q-33 41 -103 41q-48 0 -79 -30t-31 -79
q0 -60 29 -89.5t81 -29.5q67 0 101 36h3h5v-37q0 -41 -41.5 -64t-84.5 -23q-22 0 -46.5 5.5t-52.5 20t-50.5 35.5t-37 56.5t-14.5 78.5q0 20 4.5 44t18 53.5t35 53t59 39.5t85.5 16q54 0 90.5 -23t36.5 -66v-38z" />
    <glyph glyph-name="ordfeminine" unicode="&#xaa;" horiz-adv-x="402" 
d="M335 448q0 -56 -36.5 -91.5t-93.5 -35.5h-16q-61 0 -99 31.5t-38 81.5q0 112 169 112h24q0 34 -15 46t-52 12q-78 0 -107 -38h-5v31q0 35 31.5 61.5t93.5 26.5q64 0 104 -36.5t40 -121.5v-79zM245 447v29h-24q-44 0 -60 -9.5t-16 -29.5q0 -38 52 -38q25 0 36.5 11
t11.5 37z" />
    <glyph glyph-name="guillemotleft" unicode="&#xab;" horiz-adv-x="451" 
d="M430 73h-23q-76 0 -105 46l-89 144l89 145q28 44 105 44h23l-111 -189zM242 73h-23q-72 0 -105 46l-99 144l99 145q30 44 105 44h23l-121 -189z" />
    <glyph glyph-name="logicalnot" unicode="&#xac;" horiz-adv-x="584" 
d="M557 443v-357h-129v228h-400v129h529z" />
    <glyph glyph-name="registered" unicode="&#xae;" horiz-adv-x="806" 
d="M742 332q0 -142 -101 -243t-243 -101t-243 101t-101 243t101 243t243 101t243 -101t101 -243zM676 332q0 115 -81.5 196.5t-196.5 81.5t-196.5 -81.5t-81.5 -196.5t81.5 -196.5t196.5 -81.5t196.5 81.5t81.5 196.5zM573 165q-16 -15 -27 -19t-30 -4q-53 0 -79 54
q-4 8 -12 28t-13 29.5t-15.5 19.5t-24.5 12q-14 1 -21 3v-146h-40q-32 0 -50 17t-18 44v315q49 17 116 17h43q64 0 103.5 -33t39.5 -85q0 -73 -73 -101q12 -6 21.5 -17t14 -18.5t14.5 -28.5t13 -28q19 -37 38 -56v-3zM436 406q0 47 -43 47h-22q-6 0 -20 -2v-81q12 -1 41 -1
q19 0 31.5 10t12.5 27z" />
    <glyph glyph-name="macron" unicode="&#xaf;" horiz-adv-x="332" 
d="M299 714v-45q0 -19 -18.5 -35t-44.5 -16h-203v36q0 26 19.5 43t53.5 17h193z" />
    <glyph glyph-name="degree" unicode="&#xb0;" horiz-adv-x="415" 
d="M362 555q0 -65 -42 -107.5t-111 -42.5q-71 0 -113.5 42t-42.5 106q0 66 41.5 109.5t114.5 43.5h1q72 0 112 -42t40 -109zM272 555q0 30 -16.5 51.5t-46.5 21.5h-1q-29 0 -46 -22t-17 -53q0 -27 17.5 -48t45.5 -21q30 0 47 20.5t17 50.5z" />
    <glyph glyph-name="plusminus" unicode="&#xb1;" 
d="M555 424q0 -28 -20 -46.5t-53 -18.5h-130v-179h-48q-27 0 -47 21.5t-20 58.5v99h-207v49q0 25 20.5 44.5t50.5 19.5h136v159h57q23 0 40.5 -18.5t17.5 -46.5v-94h203v-48zM535 45q0 -17 -16.5 -31t-39.5 -14h-435v46q0 23 17 37.5t48 14.5h426v-53z" />
    <glyph glyph-name="twosuperior" unicode="&#xb2;" horiz-adv-x="435" 
d="M311 271h-200q-24 0 -41 14.5t-17 37.5q0 50 74 109l94 74q26 20 26 47q0 45 -66 45q-42 0 -68 -11t-48 -38h-4v39q0 47 38 78t117 31q69 0 110.5 -38.5t41.5 -92.5q0 -45 -19 -72.5t-74 -65.5q-2 -1 -14.5 -9.5t-20.5 -13.5q-24 -15 -47 -36h184v-42q0 -56 -66 -56z" />
    <glyph glyph-name="threesuperior" unicode="&#xb3;" horiz-adv-x="373" 
d="M157 264q-55 0 -92.5 22t-37.5 70v47h9q39 -41 119 -41q61 0 61 34q0 22 -13.5 31.5t-55.5 12.5q-52 3 -52 46v29l59 5q28 2 41.5 8.5t16 12.5t2.5 18q0 41 -71 41q-66 0 -105 -42h-9v50q0 37 38 63.5t107 26.5q64 0 108.5 -34t44.5 -90q0 -60 -54 -90q23 -10 39.5 -33
t16.5 -49q0 -67 -45.5 -102.5t-126.5 -35.5z" />
    <glyph glyph-name="acute" unicode="&#xb4;" horiz-adv-x="493" 
d="M346 714q0 -44 -66 -71q-57 -24 -115 -24h-45v5q40 61 75 93q28 25 48 36.5t47 11.5q56 0 56 -51z" />
    <glyph glyph-name="mu" unicode="&#xb5;" 
d="M535 248q0 -122 -55.5 -188t-150.5 -66q-94 0 -132 75v-222l-49 -1q-38 -1 -61 21.5t-23 63.5v608h26q111 0 111 -96v-191q0 -61 25 -100t82 -39q92 0 92 130v296h24q111 0 111 -96v-195z" />
    <glyph glyph-name="paragraph" unicode="&#xb6;" horiz-adv-x="531" 
d="M457 -12h-29q-60 0 -60 79v513q0 20 -8 26t-30 6h-33v-624h-22q-30 0 -48.5 19t-18.5 60v216h-7q-33 0 -70 18.5t-68 63.5t-32 105q-1 43 12 80.5t43.5 72t90.5 54.5t144 20q71 0 103.5 -25t32.5 -78v-606z" />
    <glyph glyph-name="periodcentered" unicode="&#xb7;" horiz-adv-x="250" 
d="M124 195q-36 0 -59.5 24.5t-23.5 61.5q0 38 23.5 63t60.5 25t60.5 -24.5t23.5 -63.5q0 -38 -23 -62t-61 -24h-1z" />
    <glyph glyph-name="cedilla" unicode="&#xb8;" horiz-adv-x="581" 
d="M430 -124q0 -49 -39.5 -74t-92.5 -25q-105 0 -105 61v29h5q32 -25 94 -25q54 0 54 31q0 28 -51 28q-26 0 -58 -4q24 88 26 103h62q1 -7 -3 -39q20 0 40 -6q68 -19 68 -79z" />
    <glyph glyph-name="onesuperior" unicode="&#xb9;" horiz-adv-x="375" 
d="M259 281h-55q-28 0 -46 18t-18 48v238l-35 -11q-27 -8 -49 2t-26 32l-6 31l111 46q29 13 67 13q23 0 40 -15t17 -40v-362z" />
    <glyph glyph-name="ordmasculine" unicode="&#xba;" horiz-adv-x="402" 
d="M365 508q0 -81 -44 -134t-123 -53q-73 0 -116.5 51.5t-43.5 123.5q0 81 44 134.5t123 53.5q73 0 116.5 -52t43.5 -124zM272 496q0 104 -74 104q-32 0 -49.5 -24.5t-17.5 -67.5q0 -103 74 -103q32 0 49.5 24.5t17.5 66.5z" />
    <glyph glyph-name="guillemotright" unicode="&#xbb;" horiz-adv-x="451" 
d="M210 73l121 190l-121 189h23q75 0 105 -44l99 -145l-99 -144q-33 -46 -105 -46h-23zM22 73l111 190l-111 189h23q77 0 105 -44l89 -145l-89 -144q-29 -46 -105 -46h-23z" />
    <glyph glyph-name="onequarter" unicode="&#xbc;" horiz-adv-x="900" 
d="M603 675q0 -26 -7 -41l-299 -634h-25q-21 0 -36 14.5t-15 40.5t13 52l288 613h35q20 0 33 -11.5t13 -33.5zM259 281h-55q-28 0 -46 18t-18 48v238l-35 -11q-27 -8 -49 2t-26 32l-6 31l111 46q29 13 67 13q23 0 40 -15t17 -40v-362zM813 91h-32v-91h-59q-63 0 -63 58v33
h-109q-26 0 -46.5 14.5t-20.5 36.5q0 33 16 62q33 60 87.5 127t88.5 88h38q30 0 49 -19t19 -51v-160h84v-47q0 -22 -14 -36.5t-38 -14.5zM659 281q-41 -55 -59 -93h59v93z" />
    <glyph glyph-name="onehalf" unicode="&#xbd;" horiz-adv-x="900" 
d="M603 675q0 -26 -7 -41l-299 -634h-25q-21 0 -36 14.5t-15 40.5t13 52l288 613h35q20 0 33 -11.5t13 -33.5zM777 0h-200q-24 0 -40.5 14t-16.5 38q0 50 74 109l94 74q26 19 26 46q0 20 -16.5 33t-49.5 13q-42 0 -68.5 -11t-47.5 -39h-4v40q0 47 37.5 78t116.5 31
q69 0 111 -39t42 -93q0 -44 -19 -71t-74 -66q-5 -3 -17.5 -11.5l-18.5 -12.5q-31 -22 -47 -35h185v-42q0 -56 -67 -56zM204 281q-28 0 -46 18t-18 48v238l-35 -11q-27 -8 -49 2t-26 32l-6 31l111 46q29 13 67 13q23 0 40 -15t17 -40v-362h-55z" />
    <glyph glyph-name="threequarters" unicode="&#xbe;" horiz-adv-x="900" 
d="M875 142q0 -22 -14 -36.5t-38 -14.5h-32v-91h-59q-63 0 -63 58v33h-109q-26 0 -46.5 14.5t-20.5 36.5q0 33 16 62q33 60 87.5 127t88.5 88h38q30 0 49 -19t19 -51v-160h84v-47zM629 641q0 -26 -7 -41l-283 -600h-25q-21 0 -36 14.5t-15 40.5t13 52l272 579h35
q20 0 33 -11.5t13 -33.5zM669 188v93q-41 -55 -59 -93h59zM157 264q-55 0 -92.5 22t-37.5 70v47h9q39 -41 119 -41q61 0 61 34q0 22 -13.5 31.5t-55.5 12.5q-52 3 -52 46v29l59 5q28 2 41.5 8.5t16 12.5t2.5 18q0 41 -71 41q-66 0 -105 -42h-9v50q0 37 38 63.5t107 26.5
q64 0 108.5 -34t44.5 -90q0 -60 -54 -90q23 -10 39.5 -33t16.5 -49q0 -67 -45.5 -102.5t-126.5 -35.5z" />
    <glyph glyph-name="questiondown" unicode="&#xbf;" horiz-adv-x="472" 
d="M184 454q0 35 25.5 60.5t60.5 25.5t60.5 -25.5t25.5 -60.5t-25.5 -60.5t-60.5 -25.5t-60.5 25.5t-25.5 60.5zM246 -175q-98 0 -154.5 50t-56.5 125q0 37 15.5 66t53.5 63l77 66q26 22 34 38.5t8 41.5v37h48q24 0 43 -17.5t19 -41.5q0 -36 -14.5 -63t-49.5 -58l-69 -62
q-28 -25 -28 -56q0 -70 94 -70q108 0 158 65h8v-48q0 -55 -48 -95.5t-138 -40.5z" />
    <glyph glyph-name="Agrave" unicode="&#xc0;" horiz-adv-x="622" 
d="M612 0h-56q-40 0 -64 19.5t-28 46.5q-9 68 -19 109h-273q-20 -85 -36 -175h-53q-63 0 -63 66q0 84 80 311t153 308h56q75 0 111 -63q51 -92 112 -281t80 -341zM414 284q-17 69 -47 146.5t-59 128.5q-69 -123 -106 -275h212zM137 844q0 51 56 51q27 0 47 -11.5t48 -36.5
q35 -32 75 -93v-5h-45q-58 0 -115 24q-66 27 -66 71z" />
    <glyph glyph-name="Aacute" unicode="&#xc1;" horiz-adv-x="622" 
d="M612 0h-56q-40 0 -64 19.5t-28 46.5q-9 68 -19 109h-273q-20 -85 -36 -175h-53q-63 0 -63 66q0 84 80 311t153 308h56q75 0 111 -63q51 -92 112 -281t80 -341zM414 284q-17 69 -47 146.5t-59 128.5q-69 -123 -106 -275h212zM466 844q0 -44 -66 -71q-57 -24 -115 -24h-45
v5q40 61 75 93q28 25 48 36.5t47 11.5q56 0 56 -51z" />
    <glyph glyph-name="Acircumflex" unicode="&#xc2;" horiz-adv-x="622" 
d="M612 0h-56q-40 0 -64 19.5t-28 46.5q-9 68 -19 109h-273q-20 -85 -36 -175h-53q-63 0 -63 66q0 84 80 311t153 308h56q75 0 111 -63q51 -92 112 -281t80 -341zM414 284q-17 69 -47 146.5t-59 128.5q-69 -123 -106 -275h212zM459 728l-157 72l-155 -71v31q0 36 13 57.5
t46 40.5l97 56l95 -55q61 -35 61 -102v-29z" />
    <glyph glyph-name="Atilde" unicode="&#xc3;" horiz-adv-x="622" 
d="M612 0h-56q-40 0 -64 19.5t-28 46.5q-9 68 -19 109h-273q-20 -85 -36 -175h-53q-63 0 -63 66q0 84 80 311t153 308h56q75 0 111 -63q51 -92 112 -281t80 -341zM414 284q-17 69 -47 146.5t-59 128.5q-69 -123 -106 -275h212zM471 849q0 -41 -27 -68.5t-73 -27.5
q-29 0 -77 28q-34 20 -57 20q-17 0 -28.5 -15.5t-11.5 -40.5h-25q-16 0 -27 13t-11 37q0 49 30.5 74.5t67.5 25.5q29 0 75 -26q41 -24 62 -24q22 0 31 12.5t9 41.5h30q12 0 22 -15t10 -35z" />
    <glyph glyph-name="Adieresis" unicode="&#xc4;" horiz-adv-x="622" 
d="M612 0h-56q-40 0 -64 19.5t-28 46.5q-9 68 -19 109h-273q-20 -85 -36 -175h-53q-63 0 -63 66q0 84 80 311t153 308h56q75 0 111 -63q51 -92 112 -281t80 -341zM414 284q-17 69 -47 146.5t-59 128.5q-69 -123 -106 -275h212zM481 820q0 -29 -21.5 -50.5t-50.5 -21.5
t-50 21.5t-21 50.5t21 49.5t50 20.5t50.5 -20.5t21.5 -49.5zM267 820q0 -29 -21.5 -50.5t-50.5 -21.5t-50 21.5t-21 50.5t21 49.5t50 20.5t50.5 -20.5t21.5 -49.5z" />
    <glyph glyph-name="Aring" unicode="&#xc5;" horiz-adv-x="622" 
d="M612 0h-56q-40 0 -64 19.5t-28 46.5q-7 49 -21 109h-271q-20 -85 -36 -175h-53q-63 0 -63 66q0 75 68 278t138 306q-38 33 -38 74q0 49 35 81t84 32q51 0 83 -33t32 -79q0 -40 -31 -71q31 -25 72 -120q49 -115 94 -277t55 -257zM350 725q0 20 -12 32.5t-33 12.5
q-20 0 -31.5 -13t-11.5 -33q0 -18 12 -32t31 -14q21 0 33 13.5t12 33.5zM414 284q-17 69 -47 146.5t-59 128.5q-69 -123 -106 -275h212z" />
    <glyph glyph-name="AE" unicode="&#xc6;" horiz-adv-x="909" 
d="M887 83q0 -47 -33 -69t-117 -22h-45q-123 0 -188 40.5t-76 147.5h-247q-31 -81 -56 -180h-54q-56 0 -56 48q0 7 2 23q14 91 115 312t186 301h568v-45q0 -33 -25.5 -52.5t-67.5 -19.5h-292q16 -77 27 -159h282v-49q0 -62 -83 -62h-189l9 -66q10 -74 34 -98t98 -24h58
q95 0 150 22v-48zM411 290q-3 55 -18 144.5t-27 133.5q-79 -110 -140 -278h185z" />
    <glyph glyph-name="Ccedilla" unicode="&#xc7;" horiz-adv-x="598" 
d="M586 502h-5q-29 38 -82.5 56t-105.5 18q-93 0 -153 -61t-60 -160q0 -118 59 -180t159 -62q51 0 102 18.5t79 47.5h5v-51q0 -65 -61.5 -99.5t-142.5 -34.5h-3q0 -23 -1 -33q42 0 75 -21t33 -64q0 -49 -39.5 -74t-92.5 -25q-105 0 -105 61v29h5q32 -25 94 -25q54 0 54 31
q0 28 -51 28q-26 0 -58 -4l11 43l15 60q-119 21 -197 112t-78 223q0 159 97 259.5t253 100.5q87 0 140.5 -36t53.5 -104v-53z" />
    <glyph glyph-name="Egrave" unicode="&#xc8;" horiz-adv-x="560" 
d="M538 128l-1 -48q-1 -44 -32.5 -64.5t-116.5 -20.5h-73q-125 0 -190 68t-65 199v127q0 104 13 193q8 58 34 80.5t71 22.5h358v-46q0 -72 -92 -72h-235q-10 -71 -10 -160h264v-49q0 -63 -83 -63h-181v-40q0 -86 31 -114t114 -28h44q83 0 150 15zM177 844q0 51 56 51
q27 0 47 -11.5t48 -36.5q35 -32 75 -93v-5h-45q-58 0 -115 24q-66 27 -66 71z" />
    <glyph glyph-name="Eacute" unicode="&#xc9;" horiz-adv-x="560" 
d="M538 128l-1 -48q-1 -44 -32.5 -64.5t-116.5 -20.5h-73q-125 0 -190 68t-65 199v127q0 104 13 193q8 58 34 80.5t71 22.5h358v-46q0 -72 -92 -72h-235q-10 -71 -10 -160h264v-49q0 -63 -83 -63h-181v-40q0 -86 31 -114t114 -28h44q83 0 150 15zM446 844q0 -44 -66 -71
q-57 -24 -115 -24h-45v5q40 61 75 93q28 25 48 36.5t47 11.5q56 0 56 -51z" />
    <glyph glyph-name="Ecircumflex" unicode="&#xca;" horiz-adv-x="560" 
d="M538 128l-1 -48q-1 -44 -32.5 -64.5t-116.5 -20.5h-73q-125 0 -190 68t-65 199v127q0 104 13 193q8 58 34 80.5t71 22.5h358v-46q0 -72 -92 -72h-235q-10 -71 -10 -160h264v-49q0 -63 -83 -63h-181v-40q0 -86 31 -114t114 -28h44q83 0 150 15zM459 728l-157 72l-155 -71
v31q0 36 13 57.5t46 40.5l97 56l95 -55q61 -35 61 -102v-29z" />
    <glyph glyph-name="Edieresis" unicode="&#xcb;" horiz-adv-x="560" 
d="M538 128l-1 -48q-1 -44 -32.5 -64.5t-116.5 -20.5h-73q-125 0 -190 68t-65 199v127q0 104 13 193q8 58 34 80.5t71 22.5h358v-46q0 -72 -92 -72h-235q-10 -71 -10 -160h264v-49q0 -63 -83 -63h-181v-40q0 -86 31 -114t114 -28h44q83 0 150 15zM471 820q0 -29 -21.5 -50.5
t-50.5 -21.5t-50 21.5t-21 50.5t21 49.5t50 20.5t50.5 -20.5t21.5 -49.5zM257 820q0 -29 -21.5 -50.5t-50.5 -21.5t-50 21.5t-21 50.5t21 49.5t50 20.5t50.5 -20.5t21.5 -49.5z" />
    <glyph glyph-name="Igrave" unicode="&#xcc;" horiz-adv-x="272" 
d="M203 0h-52q-33 0 -58 24.5t-25 66.5v594h62q28 0 50.5 -20.5t22.5 -52.5v-612zM-13 844q0 51 56 51q27 0 47 -11.5t48 -36.5q35 -32 75 -93v-5h-45q-58 0 -115 24q-66 27 -66 71z" />
    <glyph glyph-name="Iacute" unicode="&#xcd;" horiz-adv-x="272" 
d="M203 0h-52q-33 0 -58 24.5t-25 66.5v594h62q28 0 50.5 -20.5t22.5 -52.5v-612zM286 844q0 -44 -66 -71q-57 -24 -115 -24h-45v5q40 61 75 93q28 25 48 36.5t47 11.5q56 0 56 -51z" />
    <glyph glyph-name="Icircumflex" unicode="&#xce;" horiz-adv-x="272" 
d="M203 0h-52q-33 0 -58 24.5t-25 66.5v594h62q28 0 50.5 -20.5t22.5 -52.5v-612zM289 745l-157 72l-155 -71v31q0 36 13 57.5t46 40.5l97 56l95 -55q61 -35 61 -102v-29z" />
    <glyph glyph-name="Idieresis" unicode="&#xcf;" horiz-adv-x="272" 
d="M203 0h-52q-33 0 -58 24.5t-25 66.5v594h62q28 0 50.5 -20.5t22.5 -52.5v-612zM311 820q0 -29 -21.5 -50.5t-50.5 -21.5t-50 21.5t-21 50.5t21 49.5t50 20.5t50.5 -20.5t21.5 -49.5zM97 820q0 -29 -21.5 -50.5t-50.5 -21.5t-50 21.5t-21 50.5t21 49.5t50 20.5t50.5 -20.5
t21.5 -49.5z" />
    <glyph glyph-name="Eth" unicode="&#xd0;" horiz-adv-x="665" 
d="M65 389v272q25 10 77.5 18t91.5 8h71q61 0 117 -20.5t102.5 -60t74.5 -105t28 -148.5q0 -155 -90 -257t-225 -102h-57q-90 0 -140 37.5t-50 114.5v150h-74v44q0 22 13.5 35.5t36.5 13.5h24zM343 389v-45q0 -48 -53 -48h-88v-124q0 -31 15.5 -44.5t53.5 -13.5h23
q85 0 139 63t54 157q0 112 -56 175t-147 63h-30l-52 -7v-176h141z" />
    <glyph glyph-name="Ntilde" unicode="&#xd1;" horiz-adv-x="688" 
d="M623 0h-54q-49 0 -93.5 34.5t-102.5 146.5l-125 243q-28 56 -46 80v-504h-54q-33 0 -58 24t-25 66v595h68q66 0 112.5 -34.5t81.5 -105.5l120 -240l40 -92v472h61q27 0 51 -23.5t24 -55.5v-606zM503 851q0 -41 -27 -68.5t-73 -27.5q-29 0 -77 28q-34 20 -57 20
q-17 0 -28.5 -15.5t-11.5 -40.5h-25q-16 0 -27 13t-11 37q0 49 30.5 74.5t67.5 25.5q29 0 75 -26q41 -24 62 -24q22 0 31 12.5t9 41.5h30q12 0 22 -15t10 -35z" />
    <glyph glyph-name="Ograve" unicode="&#xd2;" horiz-adv-x="725" 
d="M683 353q0 -161 -87.5 -263t-240.5 -102q-132 0 -222.5 96.5t-90.5 247.5q0 163 87.5 264t240.5 101q130 0 221.5 -93.5t91.5 -250.5zM542 334q0 119 -48.5 180.5t-136.5 61.5q-77 0 -125.5 -60t-48.5 -163q0 -246 185 -246q81 0 127.5 58t46.5 169zM197 844q0 51 56 51
q27 0 47 -11.5t48 -36.5q35 -32 75 -93v-5h-45q-58 0 -115 24q-66 27 -66 71z" />
    <glyph glyph-name="Oacute" unicode="&#xd3;" horiz-adv-x="725" 
d="M683 353q0 -161 -87.5 -263t-240.5 -102q-132 0 -222.5 96.5t-90.5 247.5q0 163 87.5 264t240.5 101q130 0 221.5 -93.5t91.5 -250.5zM542 334q0 119 -48.5 180.5t-136.5 61.5q-77 0 -125.5 -60t-48.5 -163q0 -246 185 -246q81 0 127.5 58t46.5 169zM506 844
q0 -44 -66 -71q-57 -24 -115 -24h-45v5q40 61 75 93q28 25 48 36.5t47 11.5q56 0 56 -51z" />
    <glyph glyph-name="Ocircumflex" unicode="&#xd4;" horiz-adv-x="725" 
d="M683 353q0 -161 -87.5 -263t-240.5 -102q-132 0 -222.5 96.5t-90.5 247.5q0 163 87.5 264t240.5 101q130 0 221.5 -93.5t91.5 -250.5zM542 334q0 119 -48.5 180.5t-136.5 61.5q-77 0 -125.5 -60t-48.5 -163q0 -246 185 -246q81 0 127.5 58t46.5 169zM519 727l-157 72
l-155 -71v31q0 36 13 57.5t46 40.5l97 56l95 -55q61 -35 61 -102v-29z" />
    <glyph glyph-name="Otilde" unicode="&#xd5;" horiz-adv-x="725" 
d="M683 353q0 -161 -87.5 -263t-240.5 -102q-132 0 -222.5 96.5t-90.5 247.5q0 163 87.5 264t240.5 101q130 0 221.5 -93.5t91.5 -250.5zM542 334q0 119 -48.5 180.5t-136.5 61.5q-77 0 -125.5 -60t-48.5 -163q0 -246 185 -246q81 0 127.5 58t46.5 169zM515 851
q0 -41 -27 -68.5t-73 -27.5q-29 0 -77 28q-34 20 -57 20q-17 0 -28.5 -15.5t-11.5 -40.5h-25q-16 0 -27 13t-11 37q0 49 30.5 74.5t67.5 25.5q29 0 75 -26q41 -24 62 -24q22 0 31 12.5t9 41.5h30q12 0 22 -15t10 -35z" />
    <glyph glyph-name="Odieresis" unicode="&#xd6;" horiz-adv-x="725" 
d="M683 353q0 -161 -87.5 -263t-240.5 -102q-132 0 -222.5 96.5t-90.5 247.5q0 163 87.5 264t240.5 101q130 0 221.5 -93.5t91.5 -250.5zM542 334q0 119 -48.5 180.5t-136.5 61.5q-77 0 -125.5 -60t-48.5 -163q0 -246 185 -246q81 0 127.5 58t46.5 169zM541 820
q0 -29 -21.5 -50.5t-50.5 -21.5t-50 21.5t-21 50.5t21 49.5t50 20.5t50.5 -20.5t21.5 -49.5zM327 820q0 -29 -21.5 -50.5t-50.5 -21.5t-50 21.5t-21 50.5t21 49.5t50 20.5t50.5 -20.5t21.5 -49.5z" />
    <glyph glyph-name="multiply" unicode="&#xd7;" horiz-adv-x="589" 
d="M125 58l-37 37q-39 39 7 85l121 121l-166 167l36 36q17 18 40 17.5t44 -20.5l123 -123l159 159l36 -36q18 -17 17.5 -40.5t-20.5 -43.5l-116 -116l177 -177l-37 -37q-39 -39 -85 7l-131 131z" />
    <glyph glyph-name="Oslash" unicode="&#xd8;" horiz-adv-x="721" 
d="M683 353q0 -164 -83 -263.5t-247 -99.5q-99 0 -178 58l-52 -59h-27q-16 0 -28 9.5t-12 22.5q0 28 11 41l44 49q-69 92 -69 221q0 159 84.5 262t246.5 103q108 0 194 -70l60 68h29q14 0 26.5 -12.5t12.5 -29.5q0 -23 -12 -36l-54 -61q54 -85 54 -203zM482 532
q-45 44 -129 44q-60 0 -99.5 -33.5t-55 -81.5t-15.5 -108q0 -82 22 -135zM542 334q0 64 -12 111l-270 -302q44 -34 113 -34q54 0 94 35.5t57.5 85.5t17.5 104z" />
    <glyph glyph-name="Ugrave" unicode="&#xd9;" horiz-adv-x="663" 
d="M612 309q0 -154 -72.5 -237.5t-216.5 -83.5q-126 0 -199.5 81t-73.5 228v388h53q36 0 60.5 -30t24.5 -96v-253q0 -97 35.5 -143.5t113.5 -46.5q71 0 104 46t33 139v384h52q40 0 63 -30.5t23 -91.5v-254zM157 844q0 51 56 51q27 0 47 -11.5t48 -36.5q35 -32 75 -93v-5h-45
q-58 0 -115 24q-66 27 -66 71z" />
    <glyph glyph-name="Uacute" unicode="&#xda;" horiz-adv-x="663" 
d="M612 309q0 -154 -72.5 -237.5t-216.5 -83.5q-126 0 -199.5 81t-73.5 228v388h53q36 0 60.5 -30t24.5 -96v-253q0 -97 35.5 -143.5t113.5 -46.5q71 0 104 46t33 139v384h52q40 0 63 -30.5t23 -91.5v-254zM456 844q0 -44 -66 -71q-57 -24 -115 -24h-45v5q40 61 75 93
q28 25 48 36.5t47 11.5q56 0 56 -51z" />
    <glyph glyph-name="Ucircumflex" unicode="&#xdb;" horiz-adv-x="663" 
d="M612 309q0 -154 -72.5 -237.5t-216.5 -83.5q-126 0 -199.5 81t-73.5 228v388h53q36 0 60.5 -30t24.5 -96v-253q0 -97 35.5 -143.5t113.5 -46.5q71 0 104 46t33 139v384h52q40 0 63 -30.5t23 -91.5v-254zM469 727l-157 72l-155 -71v31q0 36 13 57.5t46 40.5l97 56l95 -55
q61 -35 61 -102v-29z" />
    <glyph glyph-name="Udieresis" unicode="&#xdc;" horiz-adv-x="663" 
d="M612 309q0 -154 -72.5 -237.5t-216.5 -83.5q-126 0 -199.5 81t-73.5 228v388h53q36 0 60.5 -30t24.5 -96v-253q0 -97 35.5 -143.5t113.5 -46.5q71 0 104 46t33 139v384h52q40 0 63 -30.5t23 -91.5v-254zM491 824q0 -29 -21.5 -50.5t-50.5 -21.5t-50 21.5t-21 50.5
t21 49.5t50 20.5t50.5 -20.5t21.5 -49.5zM277 824q0 -29 -21.5 -50.5t-50.5 -21.5t-50 21.5t-21 50.5t21 49.5t50 20.5t50.5 -20.5t21.5 -49.5z" />
    <glyph glyph-name="Yacute" unicode="&#xdd;" horiz-adv-x="571" 
d="M556 632q0 -37 -74.5 -157.5t-127.5 -182.5v-292h-57q-33 0 -58 24t-25 66v202q-60 78 -118.5 188t-90.5 205h64q37 0 60.5 -14.5t31.5 -33.5q57 -134 131 -239q40 55 83.5 136t64.5 151h60q27 0 41.5 -14.5t14.5 -38.5zM447 833q0 -44 -66 -71q-57 -24 -115 -24h-45v5
q40 61 75 93q28 25 48 36.5t47 11.5q56 0 56 -51z" />
    <glyph glyph-name="Thorn" unicode="&#xde;" horiz-adv-x="563" 
d="M407 346q0 57 -24 78t-80 21h-44q-30 0 -57 -5v-181q43 -9 97 -9q108 0 108 96zM65 685h62q28 0 51.5 -21t23.5 -52v-55q32 4 41 4h77q104 0 166 -52t62 -151q0 -106 -64.5 -165t-166.5 -59q-69 0 -115 16v-150h-54q-33 0 -58 24t-25 74v587z" />
    <glyph glyph-name="germandbls" unicode="&#xdf;" horiz-adv-x="623" 
d="M593 168q0 -82 -48 -130t-145 -48q-57 0 -91.5 26t-34.5 59v57h5q49 -26 105 -26q72 0 72 57q0 30 -13 44t-56 37q-51 27 -70.5 51.5t-19.5 68.5q0 69 82 118q50 30 50 66q0 33 -22.5 49t-74.5 16q-54 0 -89.5 -41t-35.5 -116v-456h-43q-50 0 -72 23.5t-22 74.5v366
q0 125 73.5 195.5t193.5 70.5q104 0 166.5 -46.5t62.5 -130.5q0 -75 -82 -120q-42 -23 -55 -35t-13 -28q0 -14 16 -27.5t72 -45.5q89 -50 89 -129z" />
    <glyph glyph-name="agrave" unicode="&#xe0;" horiz-adv-x="529" 
d="M137 714q0 51 56 51q27 0 47 -11.5t48 -36.5q35 -32 75 -93v-5h-45q-58 0 -115 24q-66 27 -66 71zM488 184q0 -85 -57 -139t-147 -54h-27q-95 0 -155.5 48t-60.5 123q0 78 63.5 123.5t204.5 45.5h47v7q0 56 -27 77.5t-89 21.5q-65 0 -108.5 -19t-62.5 -43h-5v43
q0 52 49 92t147 40q48 0 87 -12t71.5 -38.5t51 -75.5t18.5 -116v-124zM357 183v52h-48q-73 0 -102 -16.5t-29 -51.5q0 -32 24.5 -49.5t68.5 -17.5q86 0 86 83z" />
    <glyph glyph-name="aacute" unicode="&#xe1;" horiz-adv-x="529" 
d="M488 184q0 -85 -57 -139t-147 -54h-27q-95 0 -155.5 48t-60.5 123q0 78 63.5 123.5t204.5 45.5h47v7q0 56 -27 77.5t-89 21.5q-65 0 -108.5 -19t-62.5 -43h-5v43q0 52 49 92t147 40q48 0 87 -12t71.5 -38.5t51 -75.5t18.5 -116v-124zM357 183v52h-48q-73 0 -102 -16.5
t-29 -51.5q0 -32 24.5 -49.5t68.5 -17.5q86 0 86 83zM406 714q0 -44 -66 -71q-57 -24 -115 -24h-45v5q40 61 75 93q28 25 48 36.5t47 11.5q56 0 56 -51z" />
    <glyph glyph-name="acircumflex" unicode="&#xe2;" horiz-adv-x="529" 
d="M488 184q0 -85 -57 -139t-147 -54h-27q-95 0 -155.5 48t-60.5 123q0 78 63.5 123.5t204.5 45.5h47v7q0 56 -27 77.5t-89 21.5q-65 0 -108.5 -19t-62.5 -43h-5v43q0 52 49 92t147 40q48 0 87 -12t71.5 -38.5t51 -75.5t18.5 -116v-124zM357 183v52h-48q-73 0 -102 -16.5
t-29 -51.5q0 -32 24.5 -49.5t68.5 -17.5q86 0 86 83zM419 593l-157 72l-155 -71v31q0 36 13 57.5t46 40.5l97 56l95 -55q61 -35 61 -102v-29z" />
    <glyph glyph-name="atilde" unicode="&#xe3;" horiz-adv-x="529" 
d="M488 184q0 -85 -57 -139t-147 -54h-27q-95 0 -155.5 48t-60.5 123q0 78 63.5 123.5t204.5 45.5h47v7q0 56 -27 77.5t-89 21.5q-65 0 -108.5 -19t-62.5 -43h-5v43q0 52 49 92t147 40q48 0 87 -12t71.5 -38.5t51 -75.5t18.5 -116v-124zM357 183v52h-48q-73 0 -102 -16.5
t-29 -51.5q0 -32 24.5 -49.5t68.5 -17.5q86 0 86 83zM425 711q0 -41 -27 -68.5t-73 -27.5q-29 0 -77 28q-34 20 -57 20q-17 0 -28.5 -15.5t-11.5 -40.5h-25q-16 0 -27 13t-11 37q0 49 30.5 74.5t67.5 25.5q29 0 75 -26q41 -24 62 -24q22 0 31 12.5t9 41.5h30q12 0 22 -15
t10 -35z" />
    <glyph glyph-name="adieresis" unicode="&#xe4;" horiz-adv-x="529" 
d="M488 184q0 -85 -57 -139t-147 -54h-27q-95 0 -155.5 48t-60.5 123q0 78 63.5 123.5t204.5 45.5h47v7q0 56 -27 77.5t-89 21.5q-65 0 -108.5 -19t-62.5 -43h-5v43q0 52 49 92t147 40q48 0 87 -12t71.5 -38.5t51 -75.5t18.5 -116v-124zM357 183v52h-48q-73 0 -102 -16.5
t-29 -51.5q0 -32 24.5 -49.5t68.5 -17.5q86 0 86 83zM431 684q0 -29 -21.5 -50.5t-50.5 -21.5t-50 21.5t-21 50.5t21 49.5t50 20.5t50.5 -20.5t21.5 -49.5zM217 684q0 -29 -21.5 -50.5t-50.5 -21.5t-50 21.5t-21 50.5t21 49.5t50 20.5t50.5 -20.5t21.5 -49.5z" />
    <glyph glyph-name="aring" unicode="&#xe5;" horiz-adv-x="529" 
d="M488 184q0 -85 -57 -139t-147 -54h-27q-95 0 -155.5 48t-60.5 123q0 78 63.5 123.5t204.5 45.5h47v7q0 56 -27 77.5t-89 21.5q-65 0 -108.5 -19t-62.5 -43h-5v43q0 52 49 92t147 40q48 0 87 -12t71.5 -38.5t51 -75.5t18.5 -116v-124zM357 183v52h-48q-73 0 -102 -16.5
t-29 -51.5q0 -32 24.5 -49.5t68.5 -17.5q86 0 86 83zM374 698q0 -44 -30.5 -73.5t-79.5 -29.5q-51 0 -81.5 29t-30.5 73q0 49 32 77t81 28q51 0 80 -29t29 -75zM309 698q0 21 -12.5 34.5t-33.5 13.5q-20 0 -32 -14.5t-12 -34.5q0 -18 12.5 -32t31.5 -14q21 0 33.5 13.5
t12.5 33.5z" />
    <glyph glyph-name="ae" unicode="&#xe6;" horiz-adv-x="861" 
d="M823 353q0 -76 -52 -105t-185 -26l-98 2q17 -119 148 -119q113 0 164 49h3v-42q0 -123 -183 -123q-65 0 -118.5 28t-75.5 68q-18 -43 -60.5 -70t-103.5 -27h-27q-89 0 -141.5 45.5t-52.5 118.5q0 79 61.5 126.5t194.5 47.5h58v13q0 53 -28 75.5t-89 22.5q-122 0 -170 -61
h-4v44q0 53 48 92.5t146 39.5q62 0 110 -25t66 -69q24 44 74.5 69.5t106.5 25.5q83 0 145.5 -54t62.5 -146zM603 443q-46 0 -77.5 -29t-36.5 -72l-2 -20l57 -1q97 -2 125 6.5t28 40.5q0 36 -25 55.5t-69 19.5zM356 182v49h-49q-73 0 -101 -16.5t-28 -52.5q0 -64 91 -64
q35 0 61 24.5t26 59.5z" />
    <glyph glyph-name="ccedilla" unicode="&#xe7;" horiz-adv-x="510" 
d="M478 366h-5q-14 25 -52.5 40.5t-93.5 15.5q-59 0 -103 -42t-44 -101q0 -74 40.5 -119.5t108.5 -45.5q104 0 142 50h5v-62q0 -48 -42 -79.5t-111 -32.5q0 -20 -1 -29q42 0 75 -21t33 -64q0 -49 -39.5 -74t-92.5 -25q-105 0 -105 61v29h5q32 -25 94 -25q54 0 54 31
q0 28 -51 28q-26 0 -58 -4q17 62 25 98q-95 18 -158.5 91.5t-63.5 172.5q0 120 79 203t212 83q64 0 105.5 -33.5t41.5 -82.5v-63z" />
    <glyph glyph-name="egrave" unicode="&#xe8;" horiz-adv-x="558" 
d="M137 714q0 51 56 51q27 0 47 -11.5t48 -36.5q35 -32 75 -93v-5h-45q-58 0 -115 24q-66 27 -66 71zM520 343q0 -73 -58.5 -102t-194.5 -29h-88q7 -50 49 -80.5t102 -30.5q110 0 165 51h5v-42q0 -122 -195 -122q-105 0 -185 76t-80 195q0 133 73.5 213t190.5 80
q88 0 152 -58t64 -151zM394 359q0 40 -27 60.5t-75 20.5t-79.5 -33.5t-33.5 -81.5l-1 -18h60q93 0 124.5 11.5t31.5 40.5z" />
    <glyph glyph-name="eacute" unicode="&#xe9;" horiz-adv-x="558" 
d="M520 343q0 -73 -58.5 -102t-194.5 -29h-88q7 -50 49 -80.5t102 -30.5q110 0 165 51h5v-42q0 -122 -195 -122q-105 0 -185 76t-80 195q0 133 73.5 213t190.5 80q88 0 152 -58t64 -151zM394 359q0 40 -27 60.5t-75 20.5t-79.5 -33.5t-33.5 -81.5l-1 -18h60q93 0 124.5 11.5
t31.5 40.5zM438 714q0 -44 -66 -71q-57 -24 -115 -24h-45v5q40 61 75 93q28 25 48 36.5t47 11.5q56 0 56 -51z" />
    <glyph glyph-name="ecircumflex" unicode="&#xea;" horiz-adv-x="558" 
d="M520 343q0 -73 -58.5 -102t-194.5 -29h-88q7 -50 49 -80.5t102 -30.5q110 0 165 51h5v-42q0 -122 -195 -122q-105 0 -185 76t-80 195q0 133 73.5 213t190.5 80q88 0 152 -58t64 -151zM394 359q0 40 -27 60.5t-75 20.5t-79.5 -33.5t-33.5 -81.5l-1 -18h60q93 0 124.5 11.5
t31.5 40.5zM452 593l-157 72l-155 -71v31q0 36 13 57.5t46 40.5l97 56l95 -55q61 -35 61 -102v-29z" />
    <glyph glyph-name="edieresis" unicode="&#xeb;" horiz-adv-x="558" 
d="M520 343q0 -73 -58.5 -102t-194.5 -29h-88q7 -50 49 -80.5t102 -30.5q110 0 165 51h5v-42q0 -122 -195 -122q-105 0 -185 76t-80 195q0 133 73.5 213t190.5 80q88 0 152 -58t64 -151zM394 359q0 40 -27 60.5t-75 20.5t-79.5 -33.5t-33.5 -81.5l-1 -18h60q93 0 124.5 11.5
t31.5 40.5zM461 684q0 -29 -21.5 -50.5t-50.5 -21.5t-50 21.5t-21 50.5t21 49.5t50 20.5t50.5 -20.5t21.5 -49.5zM247 684q0 -29 -21.5 -50.5t-50.5 -21.5t-50 21.5t-21 50.5t21 49.5t50 20.5t50.5 -20.5t21.5 -49.5z" />
    <glyph glyph-name="igrave" unicode="&#xec;" horiz-adv-x="333" 
d="M5 714q0 51 56 51q27 0 47 -11.5t48 -36.5q35 -32 75 -93v-5h-45q-58 0 -115 24q-66 27 -66 71zM323 76q0 -43 -18.5 -62t-61.5 -19q-78 0 -119.5 43t-41.5 125v365h38q96 0 96 -100v-252q0 -40 18.5 -55.5t63.5 -15.5h25v-29z" />
    <glyph glyph-name="iacute" unicode="&#xed;" horiz-adv-x="333" 
d="M301 714q0 -44 -66 -71q-57 -24 -115 -24h-45v5q40 61 75 93q28 25 48 36.5t47 11.5q56 0 56 -51zM323 76q0 -43 -18.5 -62t-61.5 -19q-78 0 -119.5 43t-41.5 125v365h38q96 0 96 -100v-252q0 -40 18.5 -55.5t63.5 -15.5h25v-29z" />
    <glyph glyph-name="icircumflex" unicode="&#xee;" horiz-adv-x="333" 
d="M312 593l-157 72l-155 -71v31q0 36 13 57.5t46 40.5l97 56l95 -55q61 -35 61 -102v-29zM323 76q0 -43 -18.5 -62t-61.5 -19q-78 0 -119.5 43t-41.5 125v365h38q96 0 96 -100v-252q0 -40 18.5 -55.5t63.5 -15.5h25v-29z" />
    <glyph glyph-name="idieresis" unicode="&#xef;" horiz-adv-x="333" 
d="M323 684q0 -29 -21.5 -50.5t-50.5 -21.5t-50 21.5t-21 50.5t21 49.5t50 20.5t50.5 -20.5t21.5 -49.5zM109 684q0 -29 -21.5 -50.5t-50.5 -21.5t-50 21.5t-21 50.5t21 49.5t50 20.5t50.5 -20.5t21.5 -49.5zM317 76q0 -43 -18.5 -62t-61.5 -19q-78 0 -119.5 43t-41.5 125
v365h38q96 0 96 -100v-252q0 -40 18.5 -55.5t63.5 -15.5h25v-29z" />
    <glyph glyph-name="eth" unicode="&#xf0;" horiz-adv-x="602" 
d="M562 278q0 -126 -70.5 -208t-196.5 -82q-117 0 -186 79.5t-69 192.5q0 126 67 205.5t188 79.5q65 0 106 -41q-9 39 -36.5 75.5t-62.5 57.5l-96 -72q-24 19 -28 31q-2 9 1 23q1 7 7 14.5t11.5 12t15 11.5t12.5 9q-31 7 -47 25t-15 37v42l40 -1q55 -2 126 -28l86 65l22 -20
q12 -11 6 -33q-1 -6 -4.5 -12t-9.5 -12t-10 -9l-13 -9.5t-10 -7.5q77 -51 121.5 -147.5t44.5 -229.5v-47v-1zM423 260q0 168 -128 168q-56 0 -86 -40t-30 -109q0 -171 128 -171q57 0 86.5 41.5t29.5 110.5z" />
    <glyph glyph-name="ntilde" unicode="&#xf1;" horiz-adv-x="605" 
d="M540 0h-36q-44 0 -71 25t-27 63v214q0 131 -109 131q-44 0 -71 -32t-27 -89v-312h-40q-42 0 -68 25t-26 63v233q0 94 62.5 162.5t180.5 68.5q99 0 165.5 -63.5t66.5 -174.5v-314zM465 711q0 -41 -27 -68.5t-73 -27.5q-29 0 -77 28q-34 20 -57 20q-17 0 -28.5 -15.5
t-11.5 -40.5h-25q-16 0 -27 13t-11 37q0 49 30.5 74.5t67.5 25.5q29 0 75 -26q41 -24 62 -24q22 0 31 12.5t9 41.5h30q12 0 22 -15t10 -35z" />
    <glyph glyph-name="ograve" unicode="&#xf2;" horiz-adv-x="602" 
d="M137 714q0 51 56 51q27 0 47 -11.5t48 -36.5q35 -32 75 -93v-5h-45q-58 0 -115 24q-66 27 -66 71zM40 260q0 127 70.5 209.5t196.5 82.5q117 0 186 -80t69 -193q0 -127 -70.5 -209t-196.5 -82q-117 0 -186 79.5t-69 192.5zM423 260q0 172 -128 172q-56 0 -86 -42
t-30 -111q0 -171 128 -171q57 0 86.5 41.5t29.5 110.5z" />
    <glyph glyph-name="oacute" unicode="&#xf3;" horiz-adv-x="602" 
d="M40 260q0 127 70.5 209.5t196.5 82.5q117 0 186 -80t69 -193q0 -127 -70.5 -209t-196.5 -82q-117 0 -186 79.5t-69 192.5zM423 260q0 172 -128 172q-56 0 -86 -42t-30 -111q0 -171 128 -171q57 0 86.5 41.5t29.5 110.5zM436 714q0 -44 -66 -71q-57 -24 -115 -24h-45v5
q40 61 75 93q28 25 48 36.5t47 11.5q56 0 56 -51z" />
    <glyph glyph-name="ocircumflex" unicode="&#xf4;" horiz-adv-x="602" 
d="M40 260q0 127 70.5 209.5t196.5 82.5q117 0 186 -80t69 -193q0 -127 -70.5 -209t-196.5 -82q-117 0 -186 79.5t-69 192.5zM423 260q0 172 -128 172q-56 0 -86 -42t-30 -111q0 -171 128 -171q57 0 86.5 41.5t29.5 110.5zM459 593l-157 72l-155 -71v31q0 36 13 57.5
t46 40.5l97 56l95 -55q61 -35 61 -102v-29z" />
    <glyph glyph-name="otilde" unicode="&#xf5;" horiz-adv-x="602" 
d="M40 260q0 127 70.5 209.5t196.5 82.5q117 0 186 -80t69 -193q0 -127 -70.5 -209t-196.5 -82q-117 0 -186 79.5t-69 192.5zM423 260q0 172 -128 172q-56 0 -86 -42t-30 -111q0 -171 128 -171q57 0 86.5 41.5t29.5 110.5zM465 711q0 -41 -27 -68.5t-73 -27.5q-29 0 -77 28
q-34 20 -57 20q-17 0 -28.5 -15.5t-11.5 -40.5h-25q-16 0 -27 13t-11 37q0 49 30.5 74.5t67.5 25.5q29 0 75 -26q41 -24 62 -24q22 0 31 12.5t9 41.5h30q12 0 22 -15t10 -35z" />
    <glyph glyph-name="odieresis" unicode="&#xf6;" horiz-adv-x="602" 
d="M40 260q0 127 70.5 209.5t196.5 82.5q117 0 186 -80t69 -193q0 -127 -70.5 -209t-196.5 -82q-117 0 -186 79.5t-69 192.5zM423 260q0 172 -128 172q-56 0 -86 -42t-30 -111q0 -171 128 -171q57 0 86.5 41.5t29.5 110.5zM481 684q0 -29 -21.5 -50.5t-50.5 -21.5t-50 21.5
t-21 50.5t21 49.5t50 20.5t50.5 -20.5t21.5 -49.5zM267 684q0 -29 -21.5 -50.5t-50.5 -21.5t-50 21.5t-21 50.5t21 49.5t50 20.5t50.5 -20.5t21.5 -49.5z" />
    <glyph glyph-name="divide" unicode="&#xf7;" horiz-adv-x="222" 
 />
    <glyph glyph-name="oslash" unicode="&#xf8;" horiz-adv-x="602" 
d="M98 -13q-16 0 -28 9.5t-12 22.5q0 28 11 41l24 28q-53 73 -53 172q0 127 70.5 209.5t196.5 82.5q80 0 143 -42l36 42h19q16 0 27.5 -11.5t11.5 -30.5q0 -22 -12 -36l-21 -25q51 -74 51 -170q0 -127 -70.5 -209t-196.5 -82q-80 0 -143 42l-37 -43h-17zM187 199l181 214
q-28 21 -73 21q-57 0 -87 -42.5t-30 -112.5q0 -45 9 -80zM416 338l-182 -212q29 -20 73 -20q57 0 87 42t30 112q0 47 -8 78z" />
    <glyph glyph-name="ugrave" unicode="&#xf9;" horiz-adv-x="604" 
d="M137 714q0 51 56 51q27 0 47 -11.5t48 -36.5q35 -32 75 -93v-5h-45q-58 0 -115 24q-66 27 -66 71zM539 242q0 -254 -236 -254q-103 0 -170.5 65.5t-67.5 179.5v307h25q111 0 111 -96v-198q0 -71 30 -105t79 -34q43 0 68.5 32t25.5 98v303h24q111 0 111 -96v-202z" />
    <glyph glyph-name="uacute" unicode="&#xfa;" horiz-adv-x="604" 
d="M539 242q0 -254 -236 -254q-103 0 -170.5 65.5t-67.5 179.5v307h25q111 0 111 -96v-198q0 -71 30 -105t79 -34q43 0 68.5 32t25.5 98v303h24q111 0 111 -96v-202zM440 714q0 -44 -66 -71q-57 -24 -115 -24h-45v5q40 61 75 93q28 25 48 36.5t47 11.5q56 0 56 -51z" />
    <glyph glyph-name="ucircumflex" unicode="&#xfb;" horiz-adv-x="604" 
d="M539 242q0 -254 -236 -254q-103 0 -170.5 65.5t-67.5 179.5v307h25q111 0 111 -96v-198q0 -71 30 -105t79 -34q43 0 68.5 32t25.5 98v303h24q111 0 111 -96v-202zM455 593l-157 72l-155 -71v31q0 36 13 57.5t46 40.5l97 56l95 -55q61 -35 61 -102v-29z" />
    <glyph glyph-name="udieresis" unicode="&#xfc;" horiz-adv-x="604" 
d="M539 242q0 -254 -236 -254q-103 0 -170.5 65.5t-67.5 179.5v307h25q111 0 111 -96v-198q0 -71 30 -105t79 -34q43 0 68.5 32t25.5 98v303h24q111 0 111 -96v-202zM471 684q0 -29 -21.5 -50.5t-50.5 -21.5t-50 21.5t-21 50.5t21 49.5t50 20.5t50.5 -20.5t21.5 -49.5z
M257 684q0 -29 -21.5 -50.5t-50.5 -21.5t-50 21.5t-21 50.5t21 49.5t50 20.5t50.5 -20.5t21.5 -49.5z" />
    <glyph glyph-name="yacute" unicode="&#xfd;" horiz-adv-x="508" 
d="M374 116q-74 -174 -125 -232.5t-125 -58.5q-39 0 -66.5 23t-27.5 60v26l76 5q36 2 54.5 21.5t40.5 77.5q-53 80 -115.5 243.5t-75.5 258.5h71q28 0 50.5 -17.5t27.5 -45.5q29 -157 108 -311q35 80 65.5 187.5t39.5 186.5h58q63 0 63 -63q0 -37 -45 -165.5t-74 -195.5z
M416 714q0 -44 -66 -71q-57 -24 -115 -24h-45v5q40 61 75 93q28 25 48 36.5t47 11.5q56 0 56 -51z" />
    <glyph glyph-name="thorn" unicode="&#xfe;" horiz-adv-x="620" 
d="M200 300v-49q0 -67 37.5 -105.5t94.5 -38.5q49 0 79.5 40t30.5 104q0 94 -31.5 138t-96.5 44q-51 0 -82.5 -36.5t-31.5 -96.5zM66 283v437h38q48 0 72 -24.5t24 -65.5v-116q49 38 135 38q104 0 174.5 -80.5t70.5 -185.5q0 -133 -64 -215.5t-179 -82.5q-90 0 -136 70v-228
h-42q-38 0 -66 25.5t-28 67.5v326q0 6 0.5 17.5t0.5 16.5z" />
    <glyph glyph-name="ydieresis" unicode="&#xff;" horiz-adv-x="508" 
d="M374 116q-74 -174 -125 -232.5t-125 -58.5q-39 0 -66.5 23t-27.5 60v26l76 5q36 2 54.5 21.5t40.5 77.5q-53 80 -115.5 243.5t-75.5 258.5h71q28 0 50.5 -17.5t27.5 -45.5q29 -157 108 -311q35 80 65.5 187.5t39.5 186.5h58q63 0 63 -63q0 -37 -45 -165.5t-74 -195.5z
M441 684q0 -29 -21.5 -50.5t-50.5 -21.5t-50 21.5t-21 50.5t21 49.5t50 20.5t50.5 -20.5t21.5 -49.5zM227 684q0 -29 -21.5 -50.5t-50.5 -21.5t-50 21.5t-21 50.5t21 49.5t50 20.5t50.5 -20.5t21.5 -49.5z" />
    <glyph glyph-name="dotlessi" unicode="&#x131;" horiz-adv-x="333" 
d="M318 76q0 -43 -18.5 -62t-61.5 -19q-78 0 -119.5 43t-41.5 125v365h38q96 0 96 -100v-252q0 -40 18.5 -55.5t63.5 -15.5h25v-29z" />
    <glyph glyph-name="Lslash" unicode="&#x141;" horiz-adv-x="521" 
d="M357 490v-46q0 -29 -14 -47t-51 -32l-81 -31v-77q0 -80 26 -111t101 -31h35q81 0 143 25v-47q0 -49 -31.5 -74t-111.5 -25h-53q-121 0 -185.5 65.5t-64.5 188.5v32l-101 -39v47q0 27 13.5 46t48.5 32l39 15v304h56q85 0 85 -100v-150z" />
    <glyph glyph-name="lslash" unicode="&#x142;" horiz-adv-x="326" 
d="M247 348l-43 -17v-155q0 -40 21 -55.5t70 -15.5h36v-29q0 -81 -90 -81q-83 0 -127 43t-44 125v117l-101 -39v47q0 27 13.5 46t48.5 32l39 15v339h38q48 0 72 -24.5t24 -65.5v-198l108 41v-46q0 -29 -14 -47t-51 -32z" />
    <glyph glyph-name="OE" unicode="&#x152;" horiz-adv-x="929" 
d="M907 126l-1 -48q-1 -47 -31.5 -66t-116.5 -19h-35q-156 0 -209 97q-64 -107 -187 -107q-113 0 -199 96t-86 253q0 161 79.5 265.5t224.5 104.5q44 0 87.5 -21.5t68.5 -56.5q9 25 32 42.5t51 17.5h321v-46q0 -33 -25 -53t-67 -20h-197q-15 -62 -15 -160h241v-49
q0 -63 -83 -63h-158l1 -40q2 -82 34.5 -112.5t103.5 -30.5h17q43 0 83 5q24 2 35 4q13 2 31 7zM470 334q0 141 -29.5 193t-101.5 52t-113 -65t-41 -164q0 -118 45 -181t112 -63q69 0 98.5 47.5t29.5 180.5z" />
    <glyph glyph-name="oe" unicode="&#x153;" horiz-adv-x="926" 
d="M888 353q0 -77 -52.5 -108.5t-184.5 -31.5h-97q7 -51 47 -80t100 -29q113 0 164 49h3v-43q0 -56 -46.5 -89t-145.5 -33q-54 0 -108 24.5t-86 69.5q-60 -94 -189 -94q-111 0 -182 78.5t-71 194.5q0 132 72.5 211.5t192.5 79.5q47 0 100 -23.5t82 -66.5q68 90 192 90
q81 0 145 -55t64 -144zM663 443q-57 0 -84 -38.5t-27 -73.5v-23h57q93 0 123 11.5t30 44.5q0 35 -27.5 57t-71.5 22zM297 431q-56 0 -88 -41t-32 -110q0 -86 36 -128.5t96 -42.5q106 0 106 161t-118 161z" />
    <glyph glyph-name="Scaron" unicode="&#x160;" horiz-adv-x="572" 
d="M527 212q0 -103 -67.5 -163.5t-190.5 -60.5q-101 0 -155 36.5t-54 98.5v61h3q83 -74 191 -74q74 0 105 23t31 67q0 38 -29.5 57.5t-133.5 41.5q-182 39 -182 176q0 90 70.5 156t186.5 66q109 0 157.5 -37t48.5 -88v-63h-4q-63 67 -178 67q-145 0 -145 -88
q0 -32 33.5 -52.5t126.5 -40.5q186 -39 186 -183zM144 915l157 -72l155 71v-31q0 -36 -13 -57.5t-46 -40.5l-97 -56l-95 55q-61 35 -61 102v29z" />
    <glyph glyph-name="scaron" unicode="&#x161;" horiz-adv-x="492" 
d="M453 170q0 -86 -58.5 -134t-166.5 -48q-73 0 -123 32t-50 74v61h5q22 -21 68.5 -36t93.5 -15q98 0 98 59q0 24 -22.5 37t-89.5 22q-86 12 -127.5 47t-41.5 96q0 78 64 132.5t165 54.5q84 0 128 -35t44 -80v-51h-5q-21 22 -64 36t-90 14q-108 0 -108 -60q0 -21 20.5 -31.5
t87.5 -21.5q172 -28 172 -153zM101 777l157 -72l155 71v-31q0 -36 -13 -57.5t-46 -40.5l-97 -56l-95 55q-61 35 -61 102v29z" />
    <glyph glyph-name="Ydieresis" unicode="&#x178;" horiz-adv-x="571" 
d="M556 632q0 -37 -74.5 -157.5t-127.5 -182.5v-292h-57q-33 0 -58 24t-25 66v202q-60 78 -118.5 188t-90.5 205h64q37 0 60.5 -14.5t31.5 -33.5q57 -134 131 -239q40 55 83.5 136t64.5 151h60q27 0 41.5 -14.5t14.5 -38.5zM461 820q0 -29 -21.5 -50.5t-50.5 -21.5t-50 21.5
t-21 50.5t21 49.5t50 20.5t50.5 -20.5t21.5 -49.5zM247 820q0 -29 -21.5 -50.5t-50.5 -21.5t-50 21.5t-21 50.5t21 49.5t50 20.5t50.5 -20.5t21.5 -49.5z" />
    <glyph glyph-name="Zcaron" unicode="&#x17d;" horiz-adv-x="587" 
d="M547 71q0 -28 -21 -49.5t-57 -21.5h-343q-38 0 -62 23t-24 63t26 82.5t77 99.5l170 192q63 71 74 105h-347v37q0 83 102 83h311q93 0 93 -90q0 -65 -83 -158l-169 -189q-84 -95 -92 -128h345v-49zM147 914l157 -72l155 71v-31q0 -36 -13 -57.5t-46 -40.5l-97 -56l-95 55
q-61 35 -61 102v29z" />
    <glyph glyph-name="zcaron" unicode="&#x17e;" horiz-adv-x="505" 
d="M465 63q0 -24 -21.5 -43.5t-47.5 -19.5h-263q-45 0 -68.5 19t-23.5 52q0 60 82 148l136 148q35 40 46 61h-265v41q0 31 23 51t66 20h245q43 0 63.5 -21t20.5 -48q0 -68 -69 -143l-135 -146q-36 -40 -51 -67h262v-52zM101 777l157 -72l155 71v-31q0 -36 -13 -57.5
t-46 -40.5l-97 -56l-95 55q-61 35 -61 102v29z" />
    <glyph glyph-name="florin" unicode="&#x192;" 
d="M535 573h-7q-39 16 -74 16q-71 0 -84 -99l-9 -65h136v-38q0 -25 -22.5 -43t-63.5 -18h-61l-28 -230q-6 -52 -16 -87.5t-29.5 -68.5t-53.5 -49.5t-83 -16.5q-46 0 -74 20.5t-28 48.5v55h5q30 -17 77 -17q32 0 49.5 21t24.5 81l28 243h-117v37q0 26 21 43t48 18l60 1l7 55
q26 216 204 216q43 0 66.5 -20.5t23.5 -50.5v-52z" />
    <glyph glyph-name="circumflex" unicode="&#x2c6;" horiz-adv-x="606" 
d="M459 597l-157 72l-155 -71v31q0 36 13 57.5t46 40.5l97 56l95 -55q61 -35 61 -102v-29z" />
    <glyph glyph-name="caron" unicode="&#x2c7;" horiz-adv-x="594" 
d="M141 777l157 -72l155 71v-31q0 -36 -13 -57.5t-46 -40.5l-97 -56l-95 55q-61 35 -61 102v29z" />
    <glyph glyph-name="breve" unicode="&#x2d8;" horiz-adv-x="481" 
d="M241 584q-61 0 -103.5 44t-42.5 111v11q62 -68 146 -68q85 0 145 68v-16q0 -64 -42.5 -107t-102.5 -43z" />
    <glyph glyph-name="dotaccent" unicode="&#x2d9;" horiz-adv-x="418" 
d="M115 717q0 39 27.5 66t66.5 27t66.5 -27t27.5 -66t-27.5 -66.5t-66.5 -27.5t-66.5 27.5t-27.5 66.5z" />
    <glyph glyph-name="ring" unicode="&#x2da;" horiz-adv-x="412" 
d="M317 715q0 -44 -30.5 -73.5t-79.5 -29.5q-51 0 -81.5 29t-30.5 73q0 49 32 77t81 28q51 0 80 -29t29 -75zM252 715q0 21 -12.5 34.5t-33.5 13.5q-20 0 -32 -14.5t-12 -34.5q0 -18 12.5 -32t31.5 -14q21 0 33.5 13.5t12.5 33.5z" />
    <glyph glyph-name="ogonek" unicode="&#x2db;" horiz-adv-x="480" 
d="M253 -215q-49 0 -79 25t-30 67q0 39 26.5 71.5t64.5 51.5h71l-40 -38q-25 -24 -32.5 -36.5t-7.5 -36.5q0 -15 11 -24.5t31 -9.5q30 0 77 31v-41q0 -31 -26 -45.5t-66 -14.5z" />
    <glyph glyph-name="tilde" unicode="&#x2dc;" horiz-adv-x="413" 
d="M375 711q0 -41 -27 -68.5t-73 -27.5q-29 0 -77 28q-34 20 -57 20q-17 0 -28.5 -15.5t-11.5 -40.5h-25q-16 0 -27 13t-11 37q0 49 30.5 74.5t67.5 25.5q29 0 75 -26q41 -24 62 -24q22 0 31 12.5t9 41.5h30q12 0 22 -15t10 -35z" />
    <glyph glyph-name="hungarumlaut" unicode="&#x2dd;" horiz-adv-x="372" 
d="M321 668q-19 -15 -54.5 -31.5t-54.5 -19.5l-20 -3q11 38 51 100q41 63 82 63q44 0 44 -37q0 -34 -48 -72zM148 668q-19 -15 -54.5 -31.5t-54.5 -19.5l-20 -3q11 38 51 100q41 63 82 63q44 0 44 -37q0 -34 -48 -72z" />
    <glyph glyph-name="endash" unicode="&#x2013;" 
d="M545 354v-53q0 -26 -17 -40.5t-48 -14.5h-437v51q0 25 16.5 41t45.5 16h440z" />
    <glyph glyph-name="emdash" unicode="&#x2014;" horiz-adv-x="1019" 
d="M974 354v-53q0 -26 -17 -40.5t-48 -14.5h-858v51q0 25 16.5 41t45.5 16h861z" />
    <glyph glyph-name="quoteleft" unicode="&#x2018;" horiz-adv-x="260" 
d="M46 570q0 67 41.5 119.5t98.5 52.5h27v-6q-19 -18 -32.5 -49t-13.5 -54q0 -29 16 -45q27 -27 27 -58t-22.5 -52.5t-55.5 -21.5q-40 0 -63 29.5t-23 84.5z" />
    <glyph glyph-name="quoteright" unicode="&#x2019;" horiz-adv-x="260" 
d="M215 607q0 -67 -41.5 -119.5t-98.5 -52.5h-27v6q19 18 32.5 49t13.5 54q0 29 -16 45q-27 27 -27 58t22.5 52.5t55.5 21.5q40 0 63 -29.5t23 -84.5z" />
    <glyph glyph-name="quotesinglbase" unicode="&#x201a;" horiz-adv-x="260" 
d="M216 34q0 -67 -41.5 -119.5t-98.5 -52.5h-27v6q19 18 32.5 49t13.5 54q0 29 -16 45q-27 27 -27 58t22.5 52.5t55.5 21.5q40 0 63 -29.5t23 -84.5z" />
    <glyph glyph-name="quotedblleft" unicode="&#x201c;" horiz-adv-x="447" 
d="M241 569q0 67 41.5 119.5t98.5 52.5h27v-6q-19 -18 -32.5 -49.5t-13.5 -53.5q0 -29 16 -45q27 -27 27 -58t-22.5 -52.5t-55.5 -21.5q-39 0 -62.5 30t-23.5 84zM33 569q0 67 41.5 119.5t98.5 52.5h27v-6q-19 -18 -32.5 -49t-13.5 -54q0 -29 16 -45q27 -27 27 -58
t-22.5 -52.5t-55.5 -21.5q-40 0 -63 29.5t-23 84.5z" />
    <glyph glyph-name="quotedblright" unicode="&#x201d;" horiz-adv-x="447" 
d="M414 605q0 -67 -41.5 -119.5t-98.5 -52.5h-27v6q19 18 32.5 49t13.5 54q0 30 -16 45q-27 27 -27 58q0 30 22.5 52t55.5 22q40 0 63 -29.5t23 -84.5zM204 605q0 -67 -41.5 -119.5t-98.5 -52.5h-27v6q19 18 32.5 49t13.5 54q0 29 -16 45q-27 25 -27 58q0 30 22.5 52
t55.5 22q40 0 63 -29.5t23 -84.5z" />
    <glyph glyph-name="quotedblbase" unicode="&#x201e;" horiz-adv-x="447" 
d="M456 34q0 -67 -41.5 -119.5t-98.5 -52.5h-27v6q19 18 32.5 49t13.5 54q0 29 -16 45q-27 27 -27 58t22.5 52.5t55.5 21.5q40 0 63 -29.5t23 -84.5zM216 34q0 -67 -41.5 -119.5t-98.5 -52.5h-27v6q19 18 32.5 49t13.5 54q0 29 -16 45q-27 27 -27 58t22.5 52.5t55.5 21.5
q40 0 63 -29.5t23 -84.5z" />
    <glyph glyph-name="dagger" unicode="&#x2020;" horiz-adv-x="490" 
d="M458 501q0 -31 -23.5 -55t-65.5 -24h-67v-580h-35q-31 0 -55 23.5t-24 65.5v491h-156v45q0 26 19.5 47.5t50.5 21.5h86v197h45q26 0 47.5 -19.5t21.5 -50.5v-127h156v-35z" />
    <glyph glyph-name="daggerdbl" unicode="&#x2021;" horiz-adv-x="490" 
d="M384 97h-82v-267h-45q-31 0 -49 20t-18 50v197h-160v46q0 26 19 47.5t49 21.5h92v215h-160v45q0 26 19 47.5t49 21.5h92v179h53q27 0 43 -17.5t16 -43.5v-118h160v-44q0 -32 -21.5 -51t-56.5 -19h-82v-215h160v-45q0 -32 -21.5 -51t-56.5 -19z" />
    <glyph glyph-name="bullet" unicode="&#x2022;" horiz-adv-x="326" 
d="M163 478q52 0 88.5 -36t36.5 -89t-36 -89t-89 -36h-1q-51 0 -87 36t-37 89t36 89t89 36z" />
    <glyph glyph-name="ellipsis" unicode="&#x2026;" horiz-adv-x="808" 
d="M761 86q0 -35 -25.5 -60.5t-60.5 -25.5t-60.5 25.5t-25.5 60.5t25.5 60.5t60.5 25.5t60.5 -25.5t25.5 -60.5zM491 86q0 -35 -25.5 -60.5t-60.5 -25.5t-60.5 25.5t-25.5 60.5t25.5 60.5t60.5 25.5t60.5 -25.5t25.5 -60.5zM221 86q0 -35 -25.5 -60.5t-60.5 -25.5
t-60.5 25.5t-25.5 60.5t25.5 60.5t60.5 25.5t60.5 -25.5t25.5 -60.5z" />
    <glyph glyph-name="perthousand" unicode="&#x2030;" horiz-adv-x="1426" 
d="M400 480q0 -101 -48.5 -166t-134.5 -65q-79 0 -126.5 62.5t-47.5 152.5q0 101 48.5 166t134.5 65q79 0 126.5 -62.5t47.5 -152.5zM672 602l-285 -602h-25q-25 0 -40 13.5t-15 38.5q0 23 16 55l275 576h34q20 0 33.5 -11t13.5 -32q0 -23 -7 -38zM1375 227
q0 -101 -48.5 -166t-134.5 -65q-79 0 -126.5 63t-47.5 153q0 101 48 165.5t134 64.5q80 0 127.5 -63t47.5 -152zM953 227q0 -101 -48.5 -166t-134.5 -65q-79 0 -126.5 63t-47.5 153q0 101 48 165.5t134 64.5q80 0 127.5 -63t47.5 -152zM289 464q0 135 -71 135
q-31 0 -47.5 -32.5t-16.5 -86.5q0 -135 71 -135q31 0 47.5 32.5t16.5 86.5zM1268 215q0 134 -71 134q-31 0 -48 -32.5t-17 -86.5q0 -134 71 -134q31 0 48 32.5t17 86.5zM846 215q0 134 -71 134q-31 0 -48 -32.5t-17 -86.5q0 -134 72 -134q31 0 47.5 32.5t16.5 86.5z" />
    <glyph glyph-name="guilsinglleft" unicode="&#x2039;" horiz-adv-x="339" 
d="M288 93h-43q-72 0 -105 46l-99 144l99 145q30 44 105 44h43l-121 -189z" />
    <glyph glyph-name="guilsinglright" unicode="&#x203a;" horiz-adv-x="339" 
d="M46 93l121 190l-121 189h43q75 0 105 -44l99 -145l-99 -144q-33 -46 -105 -46h-43z" />
    <glyph glyph-name="fraction" unicode="&#x2044;" horiz-adv-x="456" 
d="M412 634l-299 -634h-25q-21 0 -36 14.5t-15 40.5t13 52l288 613h35q20 0 33 -11.5t13 -33.5q0 -26 -7 -41z" />
    <glyph glyph-name="trademark" unicode="&#x2122;" horiz-adv-x="807" 
d="M773 318h-44q-28 0 -44.5 17t-16.5 49q0 55 -7 153q-37 -123 -42 -136q-23 -64 -36 -84h-26q-27 0 -46 27t-37 87l-16.5 54t-17.5 54q-6 -83 -8 -175v-47l-40 1q-25 0 -42 16t-17 42q0 150 30 310h27q79 0 106 -61q24 -54 57 -162q2 7 9.5 31l17 52t19.5 51q32 76 59 90
h9q78 0 88 -84q18 -153 18 -285zM319 647q0 -18 -17 -35t-41 -17h-45v-282h-46q-26 0 -42 13.5t-16 40.5v228h-101v39q0 19 16 34.5t43 15.5h249v-37z" />
    <glyph glyph-name="minus" unicode="&#x2212;" horiz-adv-x="589" 
d="M488 354v-53q0 -26 -17.5 -40.5t-47.5 -14.5h-345v51q0 25 16.5 41t45.5 16h348z" />
    <glyph glyph-name="fi" unicode="&#xfb01;" horiz-adv-x="700" 
d="M589 657q0 -32 -23.5 -55.5t-55.5 -23.5t-55 23.5t-23 55.5t23 55t55 23t55.5 -23t23.5 -55zM378 600h-4q-36 12 -78 12q-96 0 -96 -91v-48h154v-37q0 -34 -29.5 -55t-66.5 -21h-58v-360h-54q-33 0 -57 23t-24 57v452q0 31 11 63.5t34 63.5t66 51t99 20q45 0 74 -23
t29 -62v-45zM685 76q0 -43 -18.5 -62t-61.5 -19q-78 0 -119.5 43t-41.5 125v365h38q96 0 96 -100v-252q0 -40 18.5 -55.5t63.5 -15.5h25v-29z" />
    <glyph glyph-name="fl" unicode="&#xfb02;" horiz-adv-x="707" 
d="M378 600h-4q-36 12 -78 12q-96 0 -96 -91v-48h154v-37q0 -34 -29.5 -55t-66.5 -21h-58v-360h-54q-33 0 -57 23t-24 57v452q0 31 11 63.5t34 63.5t66 51t99 20q45 0 74 -23t29 -62v-45zM690 76q0 -81 -90 -81q-83 0 -127 43t-44 125v557h38q48 0 72 -24.5t24 -65.5v-454
q0 -40 21 -55.5t70 -15.5h36v-29z" />
  </font>
</defs>
</svg>
