<?xml version="1.0" encoding="UTF-8"?>
<svg width="46px" height="46px" viewBox="0 0 46 46" version="1.1" xmlns="http://www.w3.org/2000/svg" xmlns:xlink="http://www.w3.org/1999/xlink">
    <!-- Generator: Sketch 52.5 (67469) - http://www.bohemiancoding.com/sketch -->
    <title>Slice 1</title>
    <desc>Created with Sketch.</desc>
    <g id="Page-1" stroke="none" stroke-width="1" fill="none" fill-rule="evenodd">
        <g id="iconfinder___online_page_survey_exam_choice_3668644">
            <path d="M0,8.5 L43,8.5 L43,35.5 C43,36.6 42.1,37.5 41,37.5 L2,37.5 C0.9,37.5 0,36.6 0,35.5 L0,8.5 Z" id="Path" fill="#D9DCE1"></path>
            <path d="M0,8.5 L43,8.5 L43,2.5 C43,1.4 42.1,0.5 41,0.5 L2,0.5 C0.9,0.5 0,1.4 0,2.5 L0,8.5 Z" id="Path" fill="#FB2798"></path>
            <path d="M20,19 L27,19" id="Path" stroke="#FFFFFF" stroke-width="2" stroke-linecap="square"></path>
            <path d="M20,29 L27,29" id="Path" stroke="#FFFFFF" stroke-width="2" stroke-linecap="square"></path>
            <path d="M20,25 L34,25" id="Path" stroke="#FFFFFF" stroke-width="2" stroke-linecap="square"></path>
            <path d="M4,4.5 L14,4.5" id="Path" stroke="#C62179" stroke-width="2" stroke-dasharray="2,2"></path>
            <path d="M43.7,26.9 L36,26.2 L36,19.6 C36,18.7 35.5,17.9 34.6,17.6 C33.2,17.2 32,18.2 32,19.5 L32,27.4 L32,28.4 L32,33.5 L26,33.5 C24.3,33.5 23,34.8 23,36.5 L23,37.5 L26.9,37.5 C27.9,37.5 29.4,37.7 30.8,38.1 C32.1,38.5 33.1,39.4 33.6,40.6 C33.9,41.2 34,41.9 34,42.6 L34,46 C34,46 44,46 44,46 L44,42.1 C44.9,39.9 46,37.5 46,35.2 L46,29.5 C46,28.2 45,27.1 43.7,26.9 Z" id="Path" fill="#C62179"></path>
            <polyline id="Path" stroke="#FFFFFF" stroke-width="2" stroke-linecap="square" points="8.5 16.5 10 18 13 15"></polyline>
            <path d="M20,15 L34,15" id="Path" stroke="#FFFFFF" stroke-width="2" stroke-linecap="square"></path>
            <rect id="Rectangle" stroke="#FFFFFF" stroke-width="2" stroke-linecap="square" x="9" y="25" width="4" height="4"></rect>
        </g>
    </g>
</svg>