<?xml version="1.0" encoding="UTF-8"?>
<svg width="52px" height="41px" viewBox="0 0 52 41" version="1.1" xmlns="http://www.w3.org/2000/svg" xmlns:xlink="http://www.w3.org/1999/xlink">
    <!-- Generator: Sketch 52.5 (67469) - http://www.bohemiancoding.com/sketch -->
    <title>Slice 1</title>
    <desc>Created with Sketch.</desc>
    <g id="Page-1" stroke="none" stroke-width="1" fill="none" fill-rule="evenodd">
        <g id="iconfinder___package_warehouse_moving_box_3144046">
            <path d="M51,37 L6,37 C5.4,37 5,36.6 5,36 L5,32 C5,31.4 5.4,31 6,31 L51,31 C51.6,31 52,31.4 52,32 L52,36 C52,36.6 51.6,37 51,37 Z" id="Path" fill="#D9DCE1"></path>
            <circle id="Oval" fill="#C62179" cx="17" cy="36" r="5"></circle>
            <circle id="Oval" fill="#FFFFFF" cx="17" cy="36" r="2"></circle>
            <circle id="Oval" fill="#C62179" cx="42" cy="36" r="5"></circle>
            <circle id="Oval" fill="#FFFFFF" cx="42" cy="36" r="2"></circle>
            <path d="M6.5,34 L6.5,7" id="Path" stroke="#D9DCE1" stroke-width="3" stroke-linecap="round" stroke-linejoin="round"></path>
            <path d="M1.5,4.8 L6.5,7" id="Path" stroke="#C62179" stroke-width="3" stroke-linecap="round" stroke-linejoin="round"></path>
            <path d="M28,9 L10,9 C9.4,9 9,9.4 9,10 L9,30 C9,30.6 9.4,31 10,31 L28,31 C28.6,31 29,30.6 29,30 L29,10 C29,9.4 28.6,9 28,9 Z" id="Path" fill="#FB2798"></path>
            <rect id="Rectangle" fill="#C62179" x="16" y="9" width="6" height="7"></rect>
            <path d="M49,17 L35,17 C34.4,17 34,17.4 34,18 L34,30 C34,30.6 34.4,31 35,31 L49,31 C49.6,31 50,30.6 50,30 L50,18 C50,17.4 49.6,17 49,17 Z" id="Path" fill="#FB2798"></path>
            <rect id="Rectangle" fill="#C62179" x="39" y="17" width="6" height="5"></rect>
            <path d="M41.7,0.1 L28.3,4.3 C27.8,4.5 27.5,5 27.6,5.6 L31.3,17 C31.5,17.5 32,17.8 32.6,17.7 L46,13.5 C46.5,13.3 46.8,12.8 46.7,12.2 L43,0.7 C42.8,0.2 42.2,-0.1 41.7,0.1 Z" id="Path" fill="#FB2798"></path>
            <rect id="Rectangle" fill="#C62179" transform="translate(35.803280, 4.591360) rotate(-17.481859) translate(-35.803280, -4.591360) " x="32.8033181" y="2.09139175" width="5.9999238" height="4.9999365"></rect>
        </g>
    </g>
</svg>