<?xml version="1.0" encoding="UTF-8"?>
<svg width="100px" height="100px" viewBox="0 0 100 100" version="1.1" xmlns="http://www.w3.org/2000/svg" xmlns:xlink="http://www.w3.org/1999/xlink">
    <!-- Generator: Sketch 47.1 (45422) - http://www.bohemiancoding.com/sketch -->
    <title>Untitled</title>
    <desc>Created with Sketch.</desc>
    <defs></defs>
    <g id="Page-1" stroke="none" stroke-width="1" fill="none" fill-rule="evenodd">
        <g id="settings" fill-rule="nonzero">
            <path d="M94.8518519,38.8888889 L85.4962963,38.8888889 C83.9925926,38.8888889 82.7537037,38.0611111 82.1777778,36.6722222 C81.6018519,35.2833333 81.8944444,33.8203704 82.9555556,32.7574074 L89.5703704,26.1444444 C90.5425926,25.1722222 91.0777778,23.8777778 91.0777778,22.5037037 C91.0777778,21.1277778 90.5425926,19.8351852 89.5703704,18.8611111 L81.1388889,10.4296296 C79.1944444,8.48518519 75.8037037,8.48148148 73.8555556,10.4296296 L67.2425926,17.0425926 C66.1796296,18.1037037 64.712963,18.4 63.3277778,17.8222222 C61.9388889,17.2462963 61.1111111,16.0074074 61.1111111,14.5037037 L61.1111111,5.14814815 C61.1111111,2.30925926 58.8018519,0 55.962963,0 L44.037037,0 C41.1981481,0 38.8888889,2.30925926 38.8888889,5.14814815 L38.8888889,14.5037037 C38.8888889,16.0074074 38.0611111,17.2462963 36.6722222,17.8222222 C35.287037,18.4018519 33.8203704,18.1037037 32.7574074,17.0425926 L26.1444444,10.4296296 C24.1962963,8.48148148 20.8055556,8.48518519 18.8611111,10.4296296 L10.4296296,18.8611111 C9.45740741,19.8333333 8.92222222,21.1277778 8.92222222,22.5037037 C8.92222222,23.8777778 9.45740741,25.1703704 10.4296296,26.1444444 L17.0444444,32.7574074 C18.1055556,33.8203704 18.3962963,35.2833333 17.8222222,36.6722222 C17.2481481,38.0611111 16.0074074,38.8888889 14.5037037,38.8888889 L5.14814815,38.8888889 C2.30925926,38.8888889 0,41.1981481 0,44.037037 L0,55.9611111 C0,58.8018519 2.30925926,61.1111111 5.14814815,61.1111111 L14.5037037,61.1111111 C16.0074074,61.1111111 17.2462963,61.9388889 17.8222222,63.3277778 C18.3981481,64.7166667 18.1055556,66.1796296 17.0444444,67.2425926 L10.4296296,73.8555556 C9.45740741,74.8277778 8.92222222,76.1222222 8.92222222,77.4962963 C8.92222222,78.8722222 9.45740741,80.1648148 10.4296296,81.1388889 L18.8611111,89.5703704 C20.8074074,91.5166667 24.1962963,91.5203704 26.1444444,89.5703704 L32.7574074,82.9555556 C33.8203704,81.8944444 35.2814815,81.6018519 36.6722222,82.1777778 C38.0611111,82.7537037 38.8888889,83.9925926 38.8888889,85.4962963 L38.8888889,94.8518519 C38.8888889,97.6907407 41.1981481,100 44.037037,100 L55.9611111,100 C58.8,100 61.1092593,97.6907407 61.1092593,94.8518519 L61.1092593,85.4962963 C61.1092593,83.9925926 61.937037,82.7537037 63.3259259,82.1777778 C64.7166667,81.6 66.1777778,81.8944444 67.2407407,82.9555556 L73.8537037,89.5703704 C75.8018519,91.5185185 79.1925926,91.5148148 81.137037,89.5703704 L89.5685185,81.1388889 C90.5407407,80.1666667 91.0759259,78.8722222 91.0759259,77.4962963 C91.0759259,76.1222222 90.5407407,74.8296296 89.5685185,73.8555556 L82.9537037,67.2425926 C81.8925926,66.1796296 81.6018519,64.7166667 82.1759259,63.3277778 C82.75,61.9388889 83.9925926,61.1111111 85.4962963,61.1111111 L94.8518519,61.1111111 C97.6907407,61.1111111 100,58.8018519 100,55.962963 L100,44.037037 C100,41.1981481 97.6907407,38.8888889 94.8518519,38.8888889 Z" id="Combined-Shape" fill="#FFFFFF"></path>
            <g id="settings-copy" fill="#000000">
                <path d="M94.8518519,38.8888889 L85.4962963,38.8888889 C83.9925926,38.8888889 82.7537037,38.0611111 82.1777778,36.6722222 C81.6018519,35.2833333 81.8944444,33.8203704 82.9555556,32.7574074 L89.5703704,26.1444444 C90.5425926,25.1722222 91.0777778,23.8777778 91.0777778,22.5037037 C91.0777778,21.1277778 90.5425926,19.8351852 89.5703704,18.8611111 L81.1388889,10.4296296 C79.1944444,8.48518519 75.8037037,8.48148148 73.8555556,10.4296296 L67.2425926,17.0425926 C66.1796296,18.1037037 64.712963,18.4 63.3277778,17.8222222 C61.9388889,17.2462963 61.1111111,16.0074074 61.1111111,14.5037037 L61.1111111,5.14814815 C61.1111111,2.30925926 58.8018519,0 55.962963,0 L44.037037,0 C41.1981481,0 38.8888889,2.30925926 38.8888889,5.14814815 L38.8888889,14.5037037 C38.8888889,16.0074074 38.0611111,17.2462963 36.6722222,17.8222222 C35.287037,18.4018519 33.8203704,18.1037037 32.7574074,17.0425926 L26.1444444,10.4296296 C24.1962963,8.48148148 20.8055556,8.48518519 18.8611111,10.4296296 L10.4296296,18.8611111 C9.45740741,19.8333333 8.92222222,21.1277778 8.92222222,22.5037037 C8.92222222,23.8777778 9.45740741,25.1703704 10.4296296,26.1444444 L17.0444444,32.7574074 C18.1055556,33.8203704 18.3962963,35.2833333 17.8222222,36.6722222 C17.2481481,38.0611111 16.0074074,38.8888889 14.5037037,38.8888889 L5.14814815,38.8888889 C2.30925926,38.8888889 0,41.1981481 0,44.037037 L0,55.9611111 C0,58.8018519 2.30925926,61.1111111 5.14814815,61.1111111 L14.5037037,61.1111111 C16.0074074,61.1111111 17.2462963,61.9388889 17.8222222,63.3277778 C18.3981481,64.7166667 18.1055556,66.1796296 17.0444444,67.2425926 L10.4296296,73.8555556 C9.45740741,74.8277778 8.92222222,76.1222222 8.92222222,77.4962963 C8.92222222,78.8722222 9.45740741,80.1648148 10.4296296,81.1388889 L18.8611111,89.5703704 C20.8074074,91.5166667 24.1962963,91.5203704 26.1444444,89.5703704 L32.7574074,82.9555556 C33.8203704,81.8944444 35.2814815,81.6018519 36.6722222,82.1777778 C38.0611111,82.7537037 38.8888889,83.9925926 38.8888889,85.4962963 L38.8888889,94.8518519 C38.8888889,97.6907407 41.1981481,100 44.037037,100 L55.9611111,100 C58.8,100 61.1092593,97.6907407 61.1092593,94.8518519 L61.1092593,85.4962963 C61.1092593,83.9925926 61.937037,82.7537037 63.3259259,82.1777778 C64.7166667,81.6 66.1777778,81.8944444 67.2407407,82.9555556 L73.8537037,89.5703704 C75.8018519,91.5185185 79.1925926,91.5148148 81.137037,89.5703704 L89.5685185,81.1388889 C90.5407407,80.1666667 91.0759259,78.8722222 91.0759259,77.4962963 C91.0759259,76.1222222 90.5407407,74.8296296 89.5685185,73.8555556 L82.9537037,67.2425926 C81.8925926,66.1796296 81.6018519,64.7166667 82.1759259,63.3277778 C82.75,61.9388889 83.9925926,61.1111111 85.4962963,61.1111111 L94.8518519,61.1111111 C97.6907407,61.1111111 100,58.8018519 100,55.962963 L100,44.037037 C100,41.1981481 97.6907407,38.8888889 94.8518519,38.8888889 Z M96.2962963,55.962963 C96.2962963,56.7592593 95.6481481,57.4074074 94.8518519,57.4074074 L85.4962963,57.4074074 C82.4888889,57.4074074 79.9055556,59.1333333 78.7555556,61.9111111 C77.6037037,64.6888889 78.2092593,67.737037 80.337037,69.862963 L86.9518519,76.4759259 C87.5166667,77.0407407 87.5166667,77.9574074 86.9518519,78.5203704 L78.5203704,86.9518519 C77.9574074,87.5148148 77.0407407,87.5185185 76.4759259,86.9518519 L69.862963,80.337037 C67.7351852,78.2092593 64.6888889,77.6074074 61.9111111,78.7555556 C59.1333333,79.9055556 57.4074074,82.4888889 57.4074074,85.4962963 L57.4074074,94.8518519 C57.4074074,95.6481481 56.7592593,96.2962963 55.962963,96.2962963 L44.037037,96.2962963 C43.2407407,96.2962963 42.5925926,95.6481481 42.5925926,94.8518519 L42.5925926,85.4962963 C42.5925926,82.4888889 40.8666667,79.9055556 38.0888889,78.7555556 C37.1574074,78.3685185 36.1981481,78.1796296 35.25,78.1796296 C33.3722222,78.1796296 31.5518519,78.9203704 30.137037,80.3351852 L23.5240741,86.95 C22.9574074,87.5166667 22.0407407,87.512963 21.4796296,86.95 L13.0481481,78.5185185 C12.4833333,77.9537037 12.4833333,77.037037 13.0481481,76.4740741 L19.662963,69.8611111 C21.7888889,67.7351852 22.3962963,64.687037 21.2444444,61.9092593 C20.0944444,59.1333333 17.5111111,57.4074074 14.5037037,57.4074074 L5.14814815,57.4074074 C4.35185185,57.4074074 3.7037037,56.7592593 3.7037037,55.962963 L3.7037037,44.037037 C3.7037037,43.2407407 4.35185185,42.5925926 5.14814815,42.5925926 L14.5037037,42.5925926 C17.5111111,42.5925926 20.0944444,40.8666667 21.2444444,38.0888889 C22.3962963,35.3111111 21.7907407,32.262963 19.662963,30.137037 L13.0481481,23.5240741 C12.4833333,22.9592593 12.4833333,22.0425926 13.0481481,21.4796296 L21.4796296,13.0481481 C22.0425926,12.4833333 22.9592593,12.4833333 23.5240741,13.0481481 L30.137037,19.6611111 C32.2611111,21.7851852 35.3074074,22.3944444 38.0888889,21.2425926 C40.8666667,20.0944444 42.5925926,17.5111111 42.5925926,14.5037037 L42.5925926,5.14814815 C42.5925926,4.35185185 43.2407407,3.7037037 44.037037,3.7037037 L55.9611111,3.7037037 C56.7592593,3.7037037 57.4074074,4.35185185 57.4074074,5.14814815 L57.4074074,14.5037037 C57.4074074,17.5111111 59.1333333,20.0944444 61.9111111,21.2444444 C64.6925926,22.3962963 67.737037,21.7888889 69.862963,19.662963 L76.4759259,13.05 C77.0425926,12.4851852 77.9592593,12.4851852 78.5203704,13.05 L86.9518519,21.4814815 C87.5166667,22.0462963 87.5166667,22.962963 86.9518519,23.5259259 L80.337037,30.1388889 C78.2111111,32.2648148 77.6037037,35.312963 78.7555556,38.0907407 C79.9055556,40.8685185 82.4888889,42.5944444 85.4962963,42.5944444 L94.8518519,42.5944444 C95.6481481,42.5925926 96.2962963,43.2407407 96.2962963,44.037037 L96.2962963,55.962963 Z" id="Shape"></path>
                <path d="M50,33.3333333 C40.8092593,33.3333333 33.3333333,40.8092593 33.3333333,50 C33.3333333,59.1907407 40.8092593,66.6666667 50,66.6666667 C59.1907407,66.6666667 66.6666667,59.1907407 66.6666667,50 C66.6666667,40.8092593 59.1907407,33.3333333 50,33.3333333 Z M50,62.962963 C42.8537037,62.962963 37.037037,57.1462963 37.037037,50 C37.037037,42.8537037 42.8537037,37.037037 50,37.037037 C57.1462963,37.037037 62.962963,42.8537037 62.962963,50 C62.962963,57.1462963 57.1462963,62.962963 50,62.962963 Z" id="Shape"></path>
            </g>
        </g>
    </g>
</svg>