<?xml version="1.0" encoding="UTF-8"?>
<svg width="82px" height="90px" viewBox="0 0 82 90" version="1.1" xmlns="http://www.w3.org/2000/svg" xmlns:xlink="http://www.w3.org/1999/xlink">
    <!-- Generator: Sketch 47.1 (45422) - http://www.bohemiancoding.com/sketch -->
    <title>Untitled</title>
    <desc>Created with Sketch.</desc>
    <defs></defs>
    <g id="Page-1" stroke="none" stroke-width="1" fill="none" fill-rule="evenodd">
        <g id="database">
            <g>
                <g>
                    <polygon id="Path-2" stroke="#FFFFFF" fill="#FFFFFF" points="2.94287109 11.6435547 11.1113281 6.05761719 20.8632812 3.53808594 35.902832 1.75927734 49.2094727 1.75927734 61.3549805 3.53808594 69.9765625 6.70141602 78.503418 11.6435547 79.7504883 14.6772461 80.46875 36.1831055 80.46875 74.7109375 77.8935547 78.8613281 69.9765625 84.1904297 56.7250977 87.0058594 42.956543 88.1088867 30.5737305 88.1088867 13.2099609 84.1904297 4.55957031 79.71875 2.03271484 76.0888672 1.32470703 63.2485352 1.32470703 14.6772461"></polygon>
                    <path d="M81.72495,13.9254545 C79.8266571,6.90545455 65.6976536,0 40.9821429,0 C16.2666321,0 2.13598929,6.90545455 0.239335714,13.9254545 C0.101635714,14.166 0,14.4294545 0,14.7272727 L0,15.5454545 L0,34.3636364 L0,35.1818182 L0,36 L0,54 L0,54.8181818 L0,55.6363636 L0,75.2727273 C0,75.5378182 0.0704892857,75.7881818 0.191796429,76.0107273 C2.12779286,84.0207273 19.4484857,90 40.9821429,90 C62.4666214,90 79.7594464,84.0452727 81.759375,76.0647273 C81.8905179,75.8307273 81.9642857,75.5607273 81.9642857,75.2727273 L81.9642857,55.6363636 L81.9642857,54.8181818 L81.9642857,54 L81.9642857,36 L81.9642857,35.1818182 L81.9642857,34.3636364 L81.9642857,15.5454545 L81.9642857,14.7272727 C81.9642857,14.4294545 81.86265,14.166 81.72495,13.9254545 Z M78.5562107,55.6118182 C78.5103107,55.8098182 78.4463786,56.0061818 78.3660536,56.2058182 C78.3004821,56.3678182 78.2201571,56.5298182 78.1316357,56.6918182 C78.0218036,56.8930909 77.8988571,57.0943636 77.7529607,57.2956364 C77.6447679,57.4478182 77.5218214,57.5983636 77.3939571,57.7489091 C77.2119964,57.9632727 77.0185607,58.1776364 76.7988964,58.3903636 C76.6661143,58.5196364 76.5202179,58.6472727 76.3726821,58.7765455 C76.1038393,59.0105455 75.8235214,59.2429091 75.5104179,59.4736364 C75.3759964,59.5734545 75.2317393,59.67 75.0891214,59.7681818 C74.7186429,60.0234545 74.3317714,60.2770909 73.9071964,60.5258182 C73.795725,60.5929091 73.6760571,60.6567273 73.5596679,60.7221818 C73.0711607,60.9970909 72.5613429,61.2703636 72.0105429,61.5354545 C71.9400536,61.5698182 71.8662857,61.6025455 71.7941571,61.6352727 C71.179425,61.9249091 70.536825,62.2096364 69.8499643,62.4845455 C69.8302929,62.4927273 69.8106214,62.4992727 69.79095,62.5074545 C66.0681321,63.9916364 61.3060071,65.2401818 55.757025,66.0583636 C55.7291571,66.0616364 55.7012893,66.0649091 55.6734214,66.0698182 C54.5947714,66.2285455 53.4882536,66.3692727 52.3522286,66.4936364 C52.1669893,66.5132727 51.9719143,66.5263636 51.7850357,66.546 C50.7932679,66.6490909 49.790025,66.744 48.757275,66.8192727 C48.2851607,66.8536364 47.7900964,66.87 47.3097857,66.8994545 C46.5327643,66.9452727 45.7639393,66.996 44.9672464,67.0238182 C43.6656536,67.0647273 42.3378321,67.0909091 40.9821429,67.0909091 C39.6264536,67.0909091 38.2986321,67.0647273 36.9954,67.0189091 C36.1987071,66.9910909 35.4298821,66.9387273 34.6528607,66.8945455 C34.17255,66.8667273 33.6774857,66.8487273 33.2053714,66.8143636 C32.1726214,66.7390909 31.1693786,66.6441818 30.1776107,66.5410909 C29.9907321,66.5214545 29.7956571,66.5083636 29.6104179,66.4887273 C28.4743929,66.3643636 27.367875,66.222 26.289225,66.0649091 C26.2613571,66.0616364 26.2334893,66.0583636 26.2056214,66.0534545 C20.6566393,65.2352727 15.8945143,63.9867273 12.1716964,62.5025455 C12.152025,62.496 12.1323536,62.4878182 12.1126821,62.4796364 C11.4258214,62.2047273 10.7815821,61.92 10.1684893,61.6303636 C10.098,61.596 10.0225929,61.5632727 9.95210357,61.5305455 C9.40130357,61.2654545 8.89148571,60.9938182 8.40297857,60.7172727 C8.28822857,60.6518182 8.16692143,60.588 8.05545,60.5209091 C7.630875,60.2721818 7.24400357,60.0185455 6.873525,59.7632727 C6.73254643,59.6650909 6.58665,59.5685455 6.45222857,59.4687273 C6.139125,59.238 5.85880714,59.0056364 5.58996429,58.7716364 C5.44406786,58.644 5.29653214,58.5163636 5.16375,58.3854545 C4.94408571,58.1727273 4.75065,57.96 4.56868929,57.744 C4.440825,57.5934545 4.31787857,57.4429091 4.20968571,57.2907273 C4.06542857,57.0894545 3.94248214,56.8881818 3.83101071,56.6869091 C3.74248929,56.5249091 3.66380357,56.3629091 3.59659286,56.2009091 C3.51626786,56.0029091 3.45233571,55.8049091 3.40643571,55.6069091 C3.34578214,55.3467273 3.27857143,55.0816364 3.27857143,54.8181818 C3.27857143,54.6332727 3.29988214,54.4483636 3.32938929,54.2650909 C3.37037143,54.018 3.34742143,53.7709091 3.27857143,53.5369091 L3.27857143,41.3885455 C3.32447143,41.4310909 3.38184643,41.472 3.42938571,41.5145455 C3.78675,41.8287273 4.15067143,42.1412727 4.56049286,42.4423636 C10.7356821,47.1043636 23.0844214,50.7272727 40.9821429,50.7272727 C58.8044571,50.7272727 71.12205,47.1338182 77.3234679,42.4996364 C77.8185321,42.1396364 78.2644179,41.7681818 78.684075,41.3901818 L78.6857143,41.3885455 L78.6857143,53.5369091 C78.6168643,53.7709091 78.5939143,54.018 78.6348964,54.2650909 C78.6660429,54.4483636 78.6857143,54.6332727 78.6857143,54.8181818 C78.6857143,55.0816364 78.6185036,55.3467273 78.5562107,55.6118182 Z M78.6857143,21.7521818 L78.6857143,33.9005455 C78.6168643,34.1345455 78.5939143,34.3816364 78.6348964,34.6287273 C78.6660429,34.812 78.6857143,34.9969091 78.6857143,35.1818182 C78.6857143,35.4452727 78.6185036,35.7103636 78.5562107,35.9754545 C78.5103107,36.1734545 78.4463786,36.3698182 78.3660536,36.5694545 C78.3004821,36.7314545 78.2201571,36.8934545 78.1316357,37.0554545 C78.0218036,37.2567273 77.8988571,37.458 77.7529607,37.6592727 C77.6447679,37.8114545 77.5218214,37.962 77.3939571,38.1125455 C77.2119964,38.3269091 77.0185607,38.5412727 76.7988964,38.754 C76.6661143,38.8832727 76.5202179,39.0109091 76.3726821,39.1401818 C76.1038393,39.3741818 75.8235214,39.6065455 75.5104179,39.8372727 C75.3759964,39.9370909 75.2317393,40.0336364 75.0891214,40.1318182 C74.7186429,40.3870909 74.3317714,40.6407273 73.9071964,40.8894545 C73.795725,40.9565455 73.6760571,41.0203636 73.5596679,41.0858182 C73.0711607,41.3607273 72.5613429,41.634 72.0105429,41.8990909 C71.9400536,41.9334545 71.8662857,41.9661818 71.7941571,41.9989091 C71.179425,42.2885455 70.536825,42.5732727 69.8499643,42.8481818 C69.8302929,42.8563636 69.8106214,42.8629091 69.79095,42.8710909 C66.0681321,44.3552727 61.3060071,45.6038182 55.757025,46.422 C55.7291571,46.4252727 55.7012893,46.4285455 55.6734214,46.4334545 C54.5947714,46.5921818 53.4882536,46.7329091 52.3522286,46.8572727 C52.1669893,46.8769091 51.9719143,46.89 51.7850357,46.9096364 C50.7932679,47.0127273 49.790025,47.1076364 48.757275,47.1829091 C48.2851607,47.2172727 47.7900964,47.2336364 47.3097857,47.2630909 C46.5327643,47.3089091 45.7639393,47.3596364 44.9672464,47.3874545 C43.6656536,47.4283636 42.3378321,47.4545455 40.9821429,47.4545455 C39.6264536,47.4545455 38.2986321,47.4283636 36.9954,47.3825455 C36.1987071,47.3547273 35.4298821,47.3023636 34.6528607,47.2581818 C34.17255,47.2303636 33.6774857,47.2123636 33.2053714,47.178 C32.1726214,47.1027273 31.1693786,47.0078182 30.1776107,46.9047273 C29.9907321,46.8850909 29.7956571,46.872 29.6104179,46.8523636 C28.4743929,46.728 27.367875,46.5856364 26.289225,46.4285455 C26.2613571,46.4252727 26.2334893,46.422 26.2056214,46.4170909 C20.6566393,45.5989091 15.8945143,44.3503636 12.1716964,42.8661818 C12.152025,42.8596364 12.1323536,42.8514545 12.1126821,42.8432727 C11.4258214,42.5683636 10.7815821,42.2836364 10.1684893,41.994 C10.098,41.9596364 10.0225929,41.9269091 9.95210357,41.8941818 C9.40130357,41.6290909 8.89148571,41.3574545 8.40297857,41.0809091 C8.28822857,41.0154545 8.16692143,40.9516364 8.05545,40.8845455 C7.630875,40.6358182 7.24400357,40.3821818 6.873525,40.1269091 C6.73254643,40.0287273 6.58665,39.9321818 6.45222857,39.8323636 C6.139125,39.6016364 5.85880714,39.3692727 5.58996429,39.1352727 C5.44406786,39.0076364 5.29653214,38.88 5.16375,38.7490909 C4.94408571,38.5363636 4.75065,38.3236364 4.56868929,38.1076364 C4.440825,37.9570909 4.31787857,37.8065455 4.20968571,37.6543636 C4.06542857,37.4530909 3.94248214,37.2518182 3.83101071,37.0505455 C3.74248929,36.8885455 3.66380357,36.7265455 3.59659286,36.5645455 C3.51626786,36.3665455 3.45233571,36.1685455 3.40643571,35.9705455 C3.34578214,35.7103636 3.27857143,35.4452727 3.27857143,35.1818182 C3.27857143,34.9969091 3.29988214,34.812 3.32938929,34.6287273 C3.37037143,34.3816364 3.34742143,34.1345455 3.27857143,33.9005455 L3.27857143,21.7521818 C3.47528571,21.9305455 3.69986786,22.1056364 3.912975,22.2823636 C4.03100357,22.3805455 4.14083571,22.4787273 4.26542143,22.5769091 C4.75720714,22.9630909 5.28833571,23.3443636 5.863725,23.7158182 C5.98339286,23.7927273 6.11781429,23.868 6.2424,23.9449091 C6.72435,24.2443636 7.23416786,24.5372727 7.77021429,24.8252727 C7.96856786,24.9316364 8.16692143,25.0363636 8.37183214,25.1410909 C8.97017143,25.4454545 9.59801786,25.7416364 10.25865,26.028 C10.3668429,26.0754545 10.4652,26.1245455 10.5750321,26.1703636 C11.3438571,26.496 12.1602214,26.8069091 13.0093714,27.108 C13.2437893,27.1914545 13.4896821,27.27 13.7306571,27.3518182 C14.4060429,27.5792727 15.1043786,27.7969091 15.8273036,28.008 C16.08795,28.0832727 16.3436786,28.1618182 16.6108821,28.2338182 C17.5698643,28.4989091 18.5599929,28.7509091 19.5993,28.9832727 C19.7419179,29.016 19.8960107,29.0421818 20.0402679,29.0732727 C20.9566286,29.2729091 21.9074143,29.4578182 22.8844286,29.6312727 C23.2155643,29.6901818 23.5516179,29.7458182 23.8893107,29.8014545 C24.8187857,29.9536364 25.7761286,30.0927273 26.7580607,30.2203636 C27.0105107,30.2530909 27.2514857,30.2907273 27.5072143,30.3218182 C28.7268429,30.4690909 29.9890929,30.5950909 31.2857679,30.7030909 C31.6054286,30.7292727 31.9382036,30.7489091 32.2627821,30.7718182 C33.30045,30.8470909 34.3610679,30.9092727 35.446275,30.9583636 C35.8413429,30.9763636 36.2347714,30.9943636 36.6380357,31.0090909 C38.0511,31.0565455 39.4903929,31.0909091 40.9821429,31.0909091 C42.4738929,31.0909091 43.9131857,31.0565455 45.32625,31.0090909 C45.727875,30.9943636 46.1213036,30.9763636 46.5180107,30.9583636 C47.6032179,30.9092727 48.6638357,30.8470909 49.7015036,30.7718182 C50.0260821,30.7472727 50.3572179,30.7292727 50.6785179,30.7030909 C51.9751929,30.5967273 53.2374429,30.4690909 54.4570714,30.3218182 C54.7128,30.2907273 54.953775,30.2530909 55.206225,30.2203636 C56.1881571,30.0927273 57.1438607,29.9536364 58.074975,29.8014545 C58.4126679,29.7458182 58.7487214,29.6901818 59.0798571,29.6312727 C60.0568714,29.4578182 61.0076571,29.2729091 61.9240179,29.0732727 C62.068275,29.0421818 62.2223679,29.0143636 62.3649857,28.9832727 C63.4042929,28.7509091 64.3944214,28.4972727 65.3534036,28.2338182 C65.6206071,28.1601818 65.8763357,28.0832727 66.1369821,28.008 C66.8599071,27.7969091 67.5582429,27.5792727 68.2336286,27.3518182 C68.4746036,27.27 68.7204964,27.1914545 68.9549143,27.108 C69.8040643,26.8069091 70.6220679,26.496 71.3892536,26.1703636 C71.4990857,26.1245455 71.5974429,26.0754545 71.7056357,26.028 C72.3662679,25.74 72.9941143,25.4454545 73.5924536,25.1410909 C73.7973643,25.0363636 73.9973571,24.9316364 74.1940714,24.8252727 C74.7301179,24.5389091 75.2399357,24.246 75.7218857,23.9449091 C75.8464714,23.868 75.9808929,23.7927273 76.1005607,23.7158182 C76.67595,23.3443636 77.2070786,22.9647273 77.6988643,22.5769091 C77.8218107,22.4787273 77.9316429,22.3805455 78.0513107,22.2823636 C78.2644179,22.1056364 78.489,21.9305455 78.6857143,21.7521818 Z M40.9821429,3.27272727 C63.2026607,3.27272727 78.6857143,9.73963636 78.6857143,15.5454545 C78.6857143,21.3512727 63.2026607,27.8181818 40.9821429,27.8181818 C18.761625,27.8181818 3.27857143,21.3512727 3.27857143,15.5454545 C3.27857143,9.73963636 18.761625,3.27272727 40.9821429,3.27272727 Z M78.6857143,74.7867273 C78.6627643,74.8587273 78.6463714,74.9323636 78.6332571,75.0076364 C77.7037821,80.6678182 62.3518714,86.7272727 40.9821429,86.7272727 C19.6124143,86.7272727 4.26050357,80.6678182 3.33102857,75.0076364 C3.31791429,74.934 3.29988214,74.862 3.27857143,74.7932727 L3.27857143,61.0249091 C3.32447143,61.0674545 3.38184643,61.1083636 3.42938571,61.1509091 C3.78675,61.4650909 4.15067143,61.7776364 4.56049286,62.0787273 C10.7356821,66.7407273 23.0844214,70.3636364 40.9821429,70.3636364 C58.8044571,70.3636364 71.12205,66.7701818 77.3234679,62.136 C77.8185321,61.776 78.2644179,61.4045455 78.684075,61.0265455 L78.6857143,61.0249091 L78.6857143,74.7867273 Z" id="Shape" fill="#292929" fill-rule="nonzero"></path>
                </g>
            </g>
        </g>
    </g>
</svg>