<?xml version="1.0" encoding="UTF-8"?>
<svg width="91px" height="85px" viewBox="0 0 91 85" version="1.1" xmlns="http://www.w3.org/2000/svg" xmlns:xlink="http://www.w3.org/1999/xlink">
    <!-- Generator: Sketch 47.1 (45422) - http://www.bohemiancoding.com/sketch -->
    <title>Untitled</title>
    <desc>Created with Sketch.</desc>
    <defs></defs>
    <g id="Page-1" stroke="none" stroke-width="1" fill="none" fill-rule="evenodd">
        <g id="inclined-clip" fill-rule="nonzero" fill="#000000">
            <path d="M84.9906193,5.42793618 C81.509593,1.92775559 76.8816491,0 71.9588019,0 C67.0359548,0 62.4080108,1.92775559 58.9269846,5.42793618 L4.17784861,60.4819709 C-1.3926162,66.0834356 -1.3926162,75.1974913 4.17784861,80.7989559 C6.96297275,83.5995794 10.6215472,85 14.2801216,85 C17.9384795,85 21.5970539,83.5995794 24.382178,80.7989559 L67.5016939,37.4394783 C71.4525732,33.4666122 71.4525732,27.0022951 67.5016939,23.0292113 C63.5508146,19.0563452 57.1220561,19.0563452 53.1711768,23.0292113 L25.4693356,50.8849966 C24.6238167,51.7352208 24.6238167,53.1138687 25.4693356,53.9643107 C26.3148545,54.8147527 27.6860892,54.8145349 28.5313916,53.9643107 L56.2332328,26.1085254 C58.495456,23.8334951 62.1769817,23.8334951 64.4392049,26.1085254 C66.7016446,28.3835557 66.7016446,32.0853516 64.4392049,34.3603819 L21.3203386,77.7198595 C17.4383133,81.6232707 11.1219298,81.6234884 7.23990456,77.7198595 C5.35940987,75.8288998 4.32378452,73.3148052 4.32378452,70.6404634 C4.32378452,67.9661217 5.35940987,65.452027 7.23990456,63.5610673 L61.9890405,8.50725031 C64.6520462,5.82942492 68.192616,4.35475939 71.9588019,4.35475939 C75.7249878,4.35475939 79.2655577,5.82942492 81.9283468,8.50725031 C87.4256272,14.0351232 87.4256272,23.0296467 81.9283468,28.5575197 L42.5966691,68.1080797 C41.7511502,68.958304 41.7511502,70.3369519 42.5966691,71.1873939 C43.442188,72.0378358 44.8132061,72.0376181 45.6589415,71.1873939 L84.9906193,31.6368338 C92.1761227,24.4109074 92.1761227,12.6536449 84.9906193,5.42793618 Z" id="Shape"></path>
        </g>
    </g>
</svg>