<?xml version="1.0" encoding="UTF-8"?>
<svg width="99px" height="100px" viewBox="0 0 99 100" version="1.1" xmlns="http://www.w3.org/2000/svg" xmlns:xlink="http://www.w3.org/1999/xlink">
    <!-- Generator: Sketch 47.1 (45422) - http://www.bohemiancoding.com/sketch -->
    <title>Untitled</title>
    <desc>Created with Sketch.</desc>
    <defs></defs>
    <g id="Page-1" stroke="none" stroke-width="1" fill="none" fill-rule="evenodd">
        <g id="box-closed">
            <polygon id="Path-3" stroke="#979797" fill="#FFFFFF" points="1.92236328 21.0605469 49.1328125 1.73242188 96.1796875 20.4848633 96.8706055 78.6411133 49.3964844 97.6855469 1.92236328 78.6411133"></polygon>
            <path d="M98.3142663,19.3122781 L98.382825,19.131251 L49.2349664,0 L0.167123196,19.3296741 L0.00691042595,19.2662512 L0.00691042595,19.3901977 L0,19.3940031 L0.00691042595,19.414842 L0.00691042595,80.7812254 L49.2125984,100 L98.4251969,80.7803193 L98.4251969,19.2671573 L98.3142663,19.3122781 Z M49.1891393,3.76097896 L65.8589053,9.70986734 L20.4164898,27.289975 L5.02315225,21.2394288 L49.1891393,3.76097896 Z M47.4586232,95.6647718 L29.0294265,88.2508141 L19.7805487,84.7884665 L3.52358982,78.3977922 L3.52358982,24.4154672 L19.6174263,30.7412689 L19.6174263,44.2394777 L21.0517034,43.8404569 L22.0209816,45.1676268 L23.370515,44.8537739 L24.6774948,46.2295076 L25.8180788,45.8379164 L27.6593436,47.6574293 L27.6593436,33.9017235 L29.0918021,34.4652814 L47.4588051,41.6835341 L47.4588051,95.6647718 L47.4586232,95.6647718 Z M49.2165992,38.6113281 L31.2480369,31.5472836 L75.5642348,13.6504238 L93.8412204,21.0698178 L49.2165992,38.6113281 Z M94.9108815,78.3977922 L50.9729385,95.6647718 L50.9729385,41.6837154 L94.9066989,24.41438 L94.9066989,78.3965237 L94.9108815,78.3977922 L94.9108815,78.3977922 Z" id="Shape" fill="#000000" fill-rule="nonzero"></path>
        </g>
    </g>
</svg>